<svg xmlns="http://www.w3.org/2000/svg" xmlns:xlink="http://www.w3.org/1999/xlink" xmlns:lucid="lucid" width="988" height="925"><g transform="translate(-60 -80)" lucid:page-tab-id="0_0"><path d="M0 0h1760v1360H0z" fill="#fff"/><path d="M80 565c0-2.76 2.24-5 5-5h190c2.76 0 5 2.24 5 5v126c0 2.76-2.24 5-5 5H85c-2.76 0-5-2.24-5-5z" fill="#fff"/><path d="M80 632h200v32H80z" fill="#e6e6e6"/><path d="M80 560h200v40H80z" fill="#ccc"/><path d="M80 565c0-2.76 2.24-5 5-5h190c2.76 0 5 2.24 5 5v126c0 2.76-2.24 5-5 5H85c-2.76 0-5-2.24-5-5zM80 600h200M140 600v96" stroke="#000" stroke-width="2" fill="none"/><use xlink:href="#a" transform="matrix(1,0,0,1,90,560) translate(30.424999999999997 23.6)"/><use xlink:href="#b" transform="matrix(1,0,0,1,90,560) translate(110.375 23.6)"/><use xlink:href="#c" transform="matrix(1,0,0,1,85,602.5) translate(13 17.1)"/><use xlink:href="#d" transform="matrix(1,0,0,1,145,602.5) translate(0 17.1)"/><use xlink:href="#e" transform="matrix(1,0,0,1,145,634.5) translate(0 17.1)"/><use xlink:href="#f" transform="matrix(1,0,0,1,145,634.5) translate(39.95 17.1)"/><use xlink:href="#g" transform="matrix(1,0,0,1,145,666.5) translate(0 17.1)"/><use xlink:href="#f" transform="matrix(1,0,0,1,145,666.5) translate(35 17.1)"/><path d="M80 345c0-2.76 2.24-5 5-5h190c2.76 0 5 2.24 5 5v126c0 2.76-2.24 5-5 5H85c-2.76 0-5-2.24-5-5z" fill="#fff"/><path d="M80 412h200v32H80z" fill="#e6e6e6"/><path d="M80 340h200v40H80z" fill="#ccc"/><path d="M80 345c0-2.76 2.24-5 5-5h190c2.76 0 5 2.24 5 5v126c0 2.76-2.24 5-5 5H85c-2.76 0-5-2.24-5-5zM80 380h200M140 380v96" stroke="#000" stroke-width="2" fill="none"/><use xlink:href="#a" transform="matrix(1,0,0,1,90,340) translate(34.05 23.6)"/><use xlink:href="#h" transform="matrix(1,0,0,1,90,340) translate(114 23.6)"/><use xlink:href="#c" transform="matrix(1,0,0,1,85,382.5) translate(13 17.1)"/><use xlink:href="#d" transform="matrix(1,0,0,1,145,382.5) translate(0 17.1)"/><use xlink:href="#i" transform="matrix(1,0,0,1,145,414.5) translate(0 17.1)"/><use xlink:href="#j" transform="matrix(1,0,0,1,145,446.5) translate(0 17.1)"/><use xlink:href="#k" transform="matrix(1,0,0,1,145,446.5) translate(49.95 17.1)"/><path d="M80 105c0-2.76 2.24-5 5-5h190c2.76 0 5 2.24 5 5v158c0 2.76-2.24 5-5 5H85c-2.76 0-5-2.24-5-5z" fill="#fff"/><path d="M80 172h200v32H80zM80 236h200v32H80z" fill="#e6e6e6"/><path d="M80 100h200v40H80z" fill="#ccc"/><path d="M80 105c0-2.76 2.24-5 5-5h190c2.76 0 5 2.24 5 5v158c0 2.76-2.24 5-5 5H85c-2.76 0-5-2.24-5-5zM80 140h200M140 140v128" stroke="#000" stroke-width="2" fill="none"/><use xlink:href="#l" transform="matrix(1,0,0,1,90,100) translate(47.099999999999994 23.6)"/><use xlink:href="#c" transform="matrix(1,0,0,1,85,142.5) translate(13 17.1)"/><use xlink:href="#d" transform="matrix(1,0,0,1,145,142.5) translate(0 17.1)"/><use xlink:href="#m" transform="matrix(1,0,0,1,145,174.5) translate(0 17.1)"/><use xlink:href="#n" transform="matrix(1,0,0,1,145,206.5) translate(0 17.1)"/><use xlink:href="#o" transform="matrix(1,0,0,1,145,238.5) translate(0 17.1)"/><path d="M828 105c0-2.76 2.24-5 5-5h190c2.76 0 5 2.24 5 5v331c0 2.76-2.24 5-5 5H833c-2.76 0-5-2.24-5-5z" fill="#fff"/><path d="M828 185h200v32H828zM828 249h200v32H828zM828 313h200v32H828zM828 377h200v32H828z" fill="#e6e6e6"/><path d="M828 100h200v53H828z" fill="#ccc"/><path d="M828 105c0-2.76 2.24-5 5-5h190c2.76 0 5 2.24 5 5v331c0 2.76-2.24 5-5 5H833c-2.76 0-5-2.24-5-5zM828 153h200M888 153v288" stroke="#000" stroke-width="2" fill="none"/><use xlink:href="#a" transform="matrix(1,0,0,1,838,100) translate(20.049999999999997 19.299999999999997)"/><use xlink:href="#p" transform="matrix(1,0,0,1,838,100) translate(100 19.299999999999997)"/><use xlink:href="#q" transform="matrix(1,0,0,1,838,100) translate(47.099999999999994 40.9)"/><use xlink:href="#c" transform="matrix(1,0,0,1,833,155.5) translate(13 17.1)"/><use xlink:href="#d" transform="matrix(1,0,0,1,893,155.5) translate(0 17.1)"/><use xlink:href="#r" transform="matrix(1,0,0,1,833,187.5) translate(13.524999999999999 17.1)"/><use xlink:href="#s" transform="matrix(1,0,0,1,893,187.5) translate(0 17.1)"/><use xlink:href="#t" transform="matrix(1,0,0,1,893,187.5) translate(88.80000000000001 17.1)"/><use xlink:href="#r" transform="matrix(1,0,0,1,833,219.5) translate(13.524999999999999 17.1)"/><use xlink:href="#u" transform="matrix(1,0,0,1,893,219.5) translate(0 17.1)"/><use xlink:href="#t" transform="matrix(1,0,0,1,893,219.5) translate(34 17.1)"/><use xlink:href="#r" transform="matrix(1,0,0,1,833,251.5) translate(13.524999999999999 17.1)"/><use xlink:href="#v" transform="matrix(1,0,0,1,893,251.5) translate(0 17.1)"/><use xlink:href="#t" transform="matrix(1,0,0,1,893,251.5) translate(38.9 17.1)"/><use xlink:href="#w" transform="matrix(1,0,0,1,893,283.5) translate(0 17.1)"/><use xlink:href="#x" transform="matrix(1,0,0,1,893,283.5) translate(46.95 17.1)"/><use xlink:href="#y" transform="matrix(1,0,0,1,893,315.5) translate(0 17.1)"/><use xlink:href="#i" transform="matrix(1,0,0,1,893,347.5) translate(0 17.1)"/><use xlink:href="#z" transform="matrix(1,0,0,1,893,379.5) translate(0 17.1)"/><use xlink:href="#A" transform="matrix(1,0,0,1,893,411.5) translate(0 17.1)"/><path d="M828 495.54c0-2.76 2.24-5 5-5h190c2.76 0 5 2.24 5 5v171c0 2.77-2.24 5-5 5H833c-2.76 0-5-2.23-5-5z" fill="#fff"/><path d="M828 575.54h200v32H828zM828 639.54h200v32H828z" fill="#e6e6e6"/><path d="M828 490.54h200v53H828z" fill="#ccc"/><path d="M828 495.54c0-2.76 2.24-5 5-5h190c2.76 0 5 2.24 5 5v171c0 2.77-2.24 5-5 5H833c-2.76 0-5-2.23-5-5zM828 543.54h200M888 543.54v128" stroke="#000" stroke-width="2" fill="none"/><use xlink:href="#a" transform="matrix(1,0,0,1,838,490.5437508457568) translate(6.074999999999989 19.299999999999997)"/><use xlink:href="#B" transform="matrix(1,0,0,1,838,490.5437508457568) translate(86.02499999999999 19.299999999999997)"/><use xlink:href="#p" transform="matrix(1,0,0,1,838,490.5437508457568) translate(113.975 19.299999999999997)"/><use xlink:href="#q" transform="matrix(1,0,0,1,838,490.5437508457568) translate(47.099999999999994 40.9)"/><use xlink:href="#c" transform="matrix(1,0,0,1,833,546.0437508457568) translate(13 17.1)"/><use xlink:href="#d" transform="matrix(1,0,0,1,893,546.0437508457568) translate(0 17.1)"/><use xlink:href="#r" transform="matrix(1,0,0,1,833,578.0437508457568) translate(13.524999999999999 17.1)"/><use xlink:href="#s" transform="matrix(1,0,0,1,893,578.0437508457568) translate(0 17.1)"/><use xlink:href="#t" transform="matrix(1,0,0,1,893,578.0437508457568) translate(88.80000000000001 17.1)"/><use xlink:href="#r" transform="matrix(1,0,0,1,833,610.0437508457568) translate(13.524999999999999 17.1)"/><use xlink:href="#u" transform="matrix(1,0,0,1,893,610.0437508457568) translate(0 17.1)"/><use xlink:href="#t" transform="matrix(1,0,0,1,893,610.0437508457568) translate(34 17.1)"/><use xlink:href="#r" transform="matrix(1,0,0,1,833,642.0437508457568) translate(13.524999999999999 17.1)"/><use xlink:href="#v" transform="matrix(1,0,0,1,893,642.0437508457568) translate(0 17.1)"/><use xlink:href="#t" transform="matrix(1,0,0,1,893,642.0437508457568) translate(38.9 17.1)"/><path d="M520 745c0-2.76 2.24-5 5-5h190c2.76 0 5 2.24 5 5v235c0 2.76-2.24 5-5 5H525c-2.76 0-5-2.24-5-5z" fill="#fff"/><path d="M520 825h200v32H520zM520 889h200v32H520zM520 953h200v32H520z" fill="#e6e6e6"/><path d="M520 740h200v53H520z" fill="#ccc"/><path d="M520 745c0-2.76 2.24-5 5-5h190c2.76 0 5 2.24 5 5v235c0 2.76-2.24 5-5 5H525c-2.76 0-5-2.24-5-5zM520 793h200M580 793v192" stroke="#000" stroke-width="2" fill="none"/><use xlink:href="#a" transform="matrix(1,0,0,1,530,740) translate(11.574999999999989 19.299999999999997)"/><use xlink:href="#C" transform="matrix(1,0,0,1,530,740) translate(91.52499999999999 19.299999999999997)"/><use xlink:href="#q" transform="matrix(1,0,0,1,530,740) translate(47.099999999999994 40.9)"/><use xlink:href="#c" transform="matrix(1,0,0,1,525,795.5) translate(13 17.1)"/><use xlink:href="#d" transform="matrix(1,0,0,1,585,795.5) translate(0 17.1)"/><use xlink:href="#r" transform="matrix(1,0,0,1,525,827.5) translate(13.524999999999999 17.1)"/><use xlink:href="#s" transform="matrix(1,0,0,1,585,827.5) translate(0 17.1)"/><use xlink:href="#t" transform="matrix(1,0,0,1,585,827.5) translate(88.80000000000001 17.1)"/><use xlink:href="#r" transform="matrix(1,0,0,1,525,859.5) translate(13.524999999999999 17.1)"/><use xlink:href="#u" transform="matrix(1,0,0,1,585,859.5) translate(0 17.1)"/><use xlink:href="#t" transform="matrix(1,0,0,1,585,859.5) translate(34 17.1)"/><use xlink:href="#r" transform="matrix(1,0,0,1,525,891.5) translate(13.524999999999999 17.1)"/><use xlink:href="#v" transform="matrix(1,0,0,1,585,891.5) translate(0 17.1)"/><use xlink:href="#t" transform="matrix(1,0,0,1,585,891.5) translate(38.9 17.1)"/><use xlink:href="#r" transform="matrix(1,0,0,1,525,923.5) translate(13.524999999999999 17.1)"/><use xlink:href="#D" transform="matrix(1,0,0,1,585,923.5) translate(0 17.1)"/><use xlink:href="#t" transform="matrix(1,0,0,1,585,923.5) translate(39.95 17.1)"/><use xlink:href="#E" transform="matrix(1,0,0,1,585,955.5) translate(0 17.1)"/><path d="M828 745c0-2.76 2.24-5 5-5h190c2.76 0 5 2.24 5 5v222c0 2.76-2.24 5-5 5H833c-2.76 0-5-2.24-5-5z" fill="#fff"/><path d="M828 812h200v32H828zM828 876h200v32H828zM828 940h200v32H828z" fill="#e6e6e6"/><path d="M828 740h200v40H828z" fill="#ccc"/><path d="M828 745c0-2.76 2.24-5 5-5h190c2.76 0 5 2.24 5 5v222c0 2.76-2.24 5-5 5H833c-2.76 0-5-2.24-5-5zM828 780h200M888 780v192" stroke="#000" stroke-width="2" fill="none"/><use xlink:href="#F" transform="matrix(1,0,0,1,838,740) translate(71.05 23.6)"/><use xlink:href="#c" transform="matrix(1,0,0,1,833,782.5) translate(13 17.1)"/><use xlink:href="#d" transform="matrix(1,0,0,1,893,782.5) translate(0 17.1)"/><use xlink:href="#G" transform="matrix(1,0,0,1,893,814.5) translate(0 17.1)"/><use xlink:href="#H" transform="matrix(1,0,0,1,893,846.5) translate(0 17.1)"/><use xlink:href="#I" transform="matrix(1,0,0,1,893,878.5) translate(0 17.1)"/><use xlink:href="#J" transform="matrix(1,0,0,1,893,878.5) translate(33.9 17.1)"/><use xlink:href="#K" transform="matrix(1,0,0,1,893,910.5) translate(0 17.1)"/><use xlink:href="#J" transform="matrix(1,0,0,1,893,910.5) translate(32.95 17.1)"/><use xlink:href="#L" transform="matrix(1,0,0,1,893,942.5) translate(0 17.1)"/><path d="M760 937.75h9c2.76 0 5-2.24 5-5V801c0-2.76 2.24-5 5-5h28" stroke="#000" stroke-width="2" fill="none"/><path d="M721.45 927.75l20 10-20 10M721.45 937.75h20M761.45 937.75c0 5.52-4.48 10-10 10-5.53 0-10-4.48-10-10 0-5.53 4.47-10 10-10 5.52 0 10 4.47 10 10M807 786v20M827 796h-20" stroke="#000" stroke-width="2" fill="#fff"/><path d="M788 591.65H595c-2.76 0-5-2.24-5-5V160.72c0-2.76-2.24-5-5-5H301" stroke="#000" stroke-width="2" fill="none"/><path d="M826.55 601.65l-20-10 20-10M826.55 591.65h-20M806.55 591.65c0 5.52-4.47 10-10 10-5.52 0-10-4.48-10-10s4.48-10 10-10c5.53 0 10 4.48 10 10M281.45 145.72l20 10-20 10M281.45 155.72h20M301.45 165.72v-20" stroke="#000" stroke-width="2" fill="#fff"/><path d="M788 656.3H669.5c-2.76 0-5-2.25-5-5v-30.42c0-2.76-2.24-5-5-5H301" stroke="#000" stroke-width="2" fill="none"/><path d="M826.55 666.3l-20-10 20-10M826.55 656.3h-20M806.55 656.3c0 5.5-4.47 10-10 10-5.52 0-10-4.5-10-10 0-5.53 4.48-10 10-10 5.53 0 10 4.47 10 10M281.45 605.88l20 10-20 10M281.45 615.88h20M301.45 625.88v-20" stroke="#000" stroke-width="2" fill="#fff"/><path d="M788 200.3h-98.5c-2.76 0-5-2.23-5-5v-34.58c0-2.76-2.24-5-5-5H301" stroke="#000" stroke-width="2" fill="none"/><path d="M826.55 210.3l-20-10 20-10M826.55 200.3h-20M806.55 200.3c0 5.53-4.47 10-10 10-5.52 0-10-4.47-10-10 0-5.52 4.48-10 10-10 5.53 0 10 4.48 10 10M281.45 145.72l20 10-20 10M281.45 155.72h20M301.45 165.72v-20" stroke="#000" stroke-width="2" fill="#fff"/><path d="M788 264.95H595c0-2.77-2.24-5-5-5s-5 2.23-5 5H415c-2.76 0-5 2.23-5 5v340.93c0 2.76-2.24 5-5 5H299.82" stroke="#000" stroke-width="2" fill="none"/><path d="M826.55 274.95l-20-10 20-10M826.55 264.95h-20M806.55 264.95c0 5.52-4.47 10-10 10-5.52 0-10-4.48-10-10 0-5.53 4.48-10 10-10 5.53 0 10 4.47 10 10M281.45 605.88l20 10-20 10M281.45 615.88h20" stroke="#000" stroke-width="2" fill="#fff"/><path d="M807 232.63H595c0-2.77-2.24-5-5-5s-5 2.23-5 5h-50c-2.76 0-5 2.23-5 5v22.32c-2.76 0-5 2.23-5 5 0 2.76 2.24 5 5 5v120.93c0 2.76-2.24 5-5 5H415c0-2.76-2.24-5-5-5s-5 2.24-5 5H299.82" stroke="#000" stroke-width="2" fill="none"/><path d="M807 222.63v20M827 232.63h-20M281.45 385.88l20 10-20 10M281.45 395.88h20" stroke="#000" stroke-width="2" fill="#fff"/><path d="M788 623.97h-23c-2.76 0-5-2.24-5-5v-22.32c-2.76 0-5-2.24-5-5s2.24-5 5-5V400.88c0-2.76-2.24-5-5-5H595c0-2.76-2.24-5-5-5s-5 2.24-5 5H415c0-2.76-2.24-5-5-5s-5 2.24-5 5H301" stroke="#000" stroke-width="2" fill="none"/><path d="M826.55 633.97l-20-10 20-10M826.55 623.97h-20M806.55 623.97c0 5.52-4.47 10-10 10-5.52 0-10-4.48-10-10s4.48-10 10-10c5.53 0 10 4.48 10 10M281.45 385.88l20 10-20 10M281.45 395.88h20M301.45 405.88v-20" stroke="#000" stroke-width="2" fill="#fff"/><path d="M480 840.8h-5c-2.76 0-5-2.25-5-5V620.87c-2.76 0-5-2.24-5-5s2.24-5 5-5v-210c-2.76 0-5-2.24-5-5s2.24-5 5-5V269.95c-2.76 0-5-2.24-5-5 0-2.77 2.24-5 5-5v-99.23c0-2.76-2.24-5-5-5H301" stroke="#000" stroke-width="2" fill="none"/><path d="M518.55 850.8l-20-10 20-10M518.55 840.8h-20" stroke="#000" stroke-width="2" fill="#fff"/><path d="M498.55 840.8c0 5.5-4.47 10-10 10-5.52 0-10-4.5-10-10 0-5.54 4.48-10 10-10 5.53 0 10 4.46 10 10M281.45 145.72l20 10-20 10M281.45 155.72h20M301.45 165.72v-20" stroke="#000" stroke-width="2" fill="#fff"/><path d="M480 873.1h-35c-2.76 0-5-2.23-5-5V620.9c-2.76 0-5-2.24-5-5s2.24-5 5-5v-210c0-2.76-2.24-5-5-5h-20c0-2.76-2.24-5-5-5s-5 2.24-5 5H299.82" stroke="#000" stroke-width="2" fill="none"/><path d="M518.55 883.1l-20-10 20-10M518.55 873.1h-20" stroke="#000" stroke-width="2" fill="#fff"/><path d="M498.55 873.1c0 5.53-4.47 10-10 10-5.52 0-10-4.47-10-10 0-5.52 4.48-10 10-10 5.53 0 10 4.48 10 10M281.45 385.88l20 10-20 10M281.45 395.88h20" stroke="#000" stroke-width="2" fill="#fff"/><path d="M480 905.42h-95c-2.76 0-5-2.23-5-5V620.9c0-2.76-2.24-5-5-5h-75.18" stroke="#000" stroke-width="2" fill="none"/><path d="M518.55 915.42l-20-10 20-10M518.55 905.42h-20" stroke="#000" stroke-width="2" fill="#fff"/><path d="M498.55 905.42c0 5.53-4.47 10-10 10-5.52 0-10-4.47-10-10 0-5.52 4.48-10 10-10 5.53 0 10 4.48 10 10M281.45 605.88l20 10-20 10M281.45 615.88h20" stroke="#000" stroke-width="2" fill="#fff"/><defs><path d="M185-189c-5-48-123-54-124 2 14 75 158 14 163 119 3 78-121 87-175 55-17-10-28-26-33-46l33-7c5 56 141 63 141-1 0-78-155-14-162-118-5-82 145-84 179-34 5 7 8 16 11 25" id="M"/><path d="M96-169c-40 0-48 33-48 73s9 75 48 75c24 0 41-14 43-38l32 2c-6 37-31 61-74 61-59 0-76-41-82-99-10-93 101-131 147-64 4 7 5 14 7 22l-32 3c-4-21-16-35-41-35" id="N"/><path d="M106-169C34-169 62-67 57 0H25v-261h32l-1 103c12-21 28-36 61-36 89 0 53 116 60 194h-32v-121c2-32-8-49-39-48" id="O"/><path d="M100-194c63 0 86 42 84 106H49c0 40 14 67 53 68 26 1 43-12 49-29l28 8c-11 28-37 45-77 45C44 4 14-33 15-96c1-61 26-98 85-98zm52 81c6-60-76-77-97-28-3 7-6 17-6 28h103" id="P"/><path d="M85-194c31 0 48 13 60 33l-1-100h32l1 261h-30c-2-10 0-23-3-31C134-8 116 4 85 4 32 4 16-35 15-94c0-66 23-100 70-100zm9 24c-40 0-46 34-46 75 0 40 6 74 45 74 42 0 51-32 51-76 0-42-9-74-50-73" id="Q"/><path d="M84 4C-5 8 30-112 23-190h32v120c0 31 7 50 39 49 72-2 45-101 50-169h31l1 190h-30c-1-10 1-25-2-33-11 22-28 36-60 37" id="R"/><path d="M24 0v-261h32V0H24" id="S"/><g id="a"><use transform="matrix(0.05,0,0,0.05,0,0)" xlink:href="#M"/><use transform="matrix(0.05,0,0,0.05,12,0)" xlink:href="#N"/><use transform="matrix(0.05,0,0,0.05,21,0)" xlink:href="#O"/><use transform="matrix(0.05,0,0,0.05,31,0)" xlink:href="#P"/><use transform="matrix(0.05,0,0,0.05,41,0)" xlink:href="#Q"/><use transform="matrix(0.05,0,0,0.05,51,0)" xlink:href="#R"/><use transform="matrix(0.05,0,0,0.05,61,0)" xlink:href="#S"/><use transform="matrix(0.05,0,0,0.05,64.95,0)" xlink:href="#P"/></g><path d="M127-220V0H93v-220H8v-28h204v28h-85" id="T"/><path d="M24-231v-30h32v30H24zM24 0v-190h32V0H24" id="U"/><path d="M210-169c-67 3-38 105-44 169h-31v-121c0-29-5-50-35-48C34-165 62-65 56 0H25l-1-190h30c1 10-1 24 2 32 10-44 99-50 107 0 11-21 27-35 58-36 85-2 47 119 55 194h-31v-121c0-29-5-49-35-48" id="V"/><g id="b"><use transform="matrix(0.05,0,0,0.05,0,0)" xlink:href="#T"/><use transform="matrix(0.05,0,0,0.05,10.3,0)" xlink:href="#U"/><use transform="matrix(0.05,0,0,0.05,14.25,0)" xlink:href="#V"/><use transform="matrix(0.05,0,0,0.05,29.200000000000003,0)" xlink:href="#P"/></g><path d="M30-248c87 1 191-15 191 75 0 78-77 80-158 76V0H30v-248zm33 125c57 0 124 11 124-50 0-59-68-47-124-48v98" id="W"/><path d="M194 0L95-120 63-95V0H30v-248h33v124l119-124h40L117-140 236 0h-42" id="X"/><g id="c"><use transform="matrix(0.05,0,0,0.05,0,0)" xlink:href="#W"/><use transform="matrix(0.05,0,0,0.05,12,0)" xlink:href="#X"/></g><path d="M33 0v-248h34V0H33" id="Y"/><path d="M30-248c118-7 216 8 213 122C240-48 200 0 122 0H30v-248zM63-27c89 8 146-16 146-99s-60-101-146-95v194" id="Z"/><g id="d"><use transform="matrix(0.05,0,0,0.05,0,0)" xlink:href="#Y"/><use transform="matrix(0.05,0,0,0.05,5,0)" xlink:href="#Z"/></g><path d="M135-143c-3-34-86-38-87 0 15 53 115 12 119 90S17 21 10-45l28-5c4 36 97 45 98 0-10-56-113-15-118-90-4-57 82-63 122-42 12 7 21 19 24 35" id="aa"/><path d="M59-47c-2 24 18 29 38 22v24C64 9 27 4 27-40v-127H5v-23h24l9-43h21v43h35v23H59v120" id="ab"/><path d="M141-36C126-15 110 5 73 4 37 3 15-17 15-53c-1-64 63-63 125-63 3-35-9-54-41-54-24 1-41 7-42 31l-33-3c5-37 33-52 76-52 45 0 72 20 72 64v82c-1 20 7 32 28 27v20c-31 9-61-2-59-35zM48-53c0 20 12 33 32 33 41-3 63-29 60-74-43 2-92-5-92 41" id="ac"/><path d="M114-163C36-179 61-72 57 0H25l-1-190h30c1 12-1 29 2 39 6-27 23-49 58-41v29" id="ad"/><g id="e"><use transform="matrix(0.05,0,0,0.05,0,0)" xlink:href="#aa"/><use transform="matrix(0.05,0,0,0.05,9,0)" xlink:href="#ab"/><use transform="matrix(0.05,0,0,0.05,14,0)" xlink:href="#ac"/><use transform="matrix(0.05,0,0,0.05,24,0)" xlink:href="#ad"/><use transform="matrix(0.05,0,0,0.05,29.950000000000003,0)" xlink:href="#ab"/></g><g id="f"><use transform="matrix(0.05,0,0,0.05,0,0)" xlink:href="#ab"/><use transform="matrix(0.05,0,0,0.05,5,0)" xlink:href="#U"/><use transform="matrix(0.05,0,0,0.05,8.95,0)" xlink:href="#V"/><use transform="matrix(0.05,0,0,0.05,23.9,0)" xlink:href="#P"/></g><path d="M117-194c89-4 53 116 60 194h-32v-121c0-31-8-49-39-48C34-167 62-67 57 0H25l-1-190h30c1 10-1 24 2 32 11-22 29-35 61-36" id="ae"/><g id="g"><use transform="matrix(0.05,0,0,0.05,0,0)" xlink:href="#P"/><use transform="matrix(0.05,0,0,0.05,10,0)" xlink:href="#ae"/><use transform="matrix(0.05,0,0,0.05,20,0)" xlink:href="#Q"/></g><path d="M179-190L93 31C79 59 56 82 12 73V49c39 6 53-20 64-50L1-190h34L92-34l54-156h33" id="af"/><g id="h"><use transform="matrix(0.05,0,0,0.05,0,0)" xlink:href="#Z"/><use transform="matrix(0.05,0,0,0.05,12.950000000000001,0)" xlink:href="#ac"/><use transform="matrix(0.05,0,0,0.05,22.950000000000003,0)" xlink:href="#af"/></g><g id="i"><use transform="matrix(0.05,0,0,0.05,0,0)" xlink:href="#ae"/><use transform="matrix(0.05,0,0,0.05,10,0)" xlink:href="#ac"/><use transform="matrix(0.05,0,0,0.05,20,0)" xlink:href="#V"/><use transform="matrix(0.05,0,0,0.05,34.95,0)" xlink:href="#P"/></g><g id="j"><use transform="matrix(0.05,0,0,0.05,0,0)" xlink:href="#ae"/><use transform="matrix(0.05,0,0,0.05,10,0)" xlink:href="#ac"/><use transform="matrix(0.05,0,0,0.05,20,0)" xlink:href="#V"/><use transform="matrix(0.05,0,0,0.05,34.95,0)" xlink:href="#P"/></g><path d="M100-194c62-1 85 37 85 99 1 63-27 99-86 99S16-35 15-95c0-66 28-99 85-99zM99-20c44 1 53-31 53-75 0-43-8-75-51-75s-53 32-53 75 10 74 51 75" id="ag"/><g id="k"><use transform="matrix(0.05,0,0,0.05,0,0)" xlink:href="#aa"/><use transform="matrix(0.05,0,0,0.05,9,0)" xlink:href="#O"/><use transform="matrix(0.05,0,0,0.05,19,0)" xlink:href="#ag"/><use transform="matrix(0.05,0,0,0.05,29,0)" xlink:href="#ad"/><use transform="matrix(0.05,0,0,0.05,34.95,0)" xlink:href="#ab"/></g><path d="M205 0l-28-72H64L36 0H1l101-248h38L239 0h-34zm-38-99l-47-123c-12 45-31 82-46 123h93" id="ah"/><g id="l"><use transform="matrix(0.05,0,0,0.05,0,0)" xlink:href="#ah"/><use transform="matrix(0.05,0,0,0.05,12,0)" xlink:href="#R"/><use transform="matrix(0.05,0,0,0.05,22,0)" xlink:href="#Q"/><use transform="matrix(0.05,0,0,0.05,32,0)" xlink:href="#U"/><use transform="matrix(0.05,0,0,0.05,35.95,0)" xlink:href="#ab"/><use transform="matrix(0.05,0,0,0.05,40.95,0)" xlink:href="#ag"/><use transform="matrix(0.05,0,0,0.05,50.95,0)" xlink:href="#ad"/><use transform="matrix(0.05,0,0,0.05,56.900000000000006,0)" xlink:href="#U"/><use transform="matrix(0.05,0,0,0.05,60.85,0)" xlink:href="#R"/><use transform="matrix(0.05,0,0,0.05,70.85000000000001,0)" xlink:href="#V"/></g><path d="M115-194c53 0 69 39 70 98 0 66-23 100-70 100C84 3 66-7 56-30L54 0H23l1-261h32v101c10-23 28-34 59-34zm-8 174c40 0 45-34 45-75 0-40-5-75-45-74-42 0-51 32-51 76 0 43 10 73 51 73" id="ai"/><path d="M177-190C167-65 218 103 67 71c-23-6-38-20-44-43l32-5c15 47 100 32 89-28v-30C133-14 115 1 83 1 29 1 15-40 15-95c0-56 16-97 71-98 29-1 48 16 59 35 1-10 0-23 2-32h30zM94-22c36 0 50-32 50-73 0-42-14-75-50-75-39 0-46 34-46 75s6 73 46 73" id="aj"/><g id="m"><use transform="matrix(0.05,0,0,0.05,0,0)" xlink:href="#ai"/><use transform="matrix(0.05,0,0,0.05,10,0)" xlink:href="#R"/><use transform="matrix(0.05,0,0,0.05,20,0)" xlink:href="#U"/><use transform="matrix(0.05,0,0,0.05,23.95,0)" xlink:href="#S"/><use transform="matrix(0.05,0,0,0.05,27.899999999999995,0)" xlink:href="#Q"/><use transform="matrix(0.05,0,0,0.05,37.9,0)" xlink:href="#U"/><use transform="matrix(0.05,0,0,0.05,41.85,0)" xlink:href="#ae"/><use transform="matrix(0.05,0,0,0.05,51.85,0)" xlink:href="#aj"/></g><path d="M101-234c-31-9-42 10-38 44h38v23H63V0H32v-167H5v-23h27c-7-52 17-82 69-68v24" id="ak"/><g id="n"><use transform="matrix(0.05,0,0,0.05,0,0)" xlink:href="#ak"/><use transform="matrix(0.05,0,0,0.05,5,0)" xlink:href="#S"/><use transform="matrix(0.05,0,0,0.05,8.95,0)" xlink:href="#ag"/><use transform="matrix(0.05,0,0,0.05,18.95,0)" xlink:href="#ag"/><use transform="matrix(0.05,0,0,0.05,28.950000000000003,0)" xlink:href="#ad"/></g><g id="o"><use transform="matrix(0.05,0,0,0.05,0,0)" xlink:href="#ad"/><use transform="matrix(0.05,0,0,0.05,5.95,0)" xlink:href="#ag"/><use transform="matrix(0.05,0,0,0.05,15.949999999999998,0)" xlink:href="#ag"/><use transform="matrix(0.05,0,0,0.05,25.950000000000003,0)" xlink:href="#V"/></g><path d="M24-231v-30h32v30H24zM-9 49c24 4 33-6 33-30v-209h32V24c2 40-23 58-65 49V49" id="al"/><g id="p"><use transform="matrix(0.05,0,0,0.05,0,0)" xlink:href="#M"/><use transform="matrix(0.05,0,0,0.05,12,0)" xlink:href="#R"/><use transform="matrix(0.05,0,0,0.05,22,0)" xlink:href="#ai"/><use transform="matrix(0.05,0,0,0.05,32,0)" xlink:href="#al"/><use transform="matrix(0.05,0,0,0.05,35.95,0)" xlink:href="#P"/><use transform="matrix(0.05,0,0,0.05,45.95,0)" xlink:href="#N"/><use transform="matrix(0.05,0,0,0.05,54.95,0)" xlink:href="#ab"/></g><g id="q"><use transform="matrix(0.05,0,0,0.05,0,0)" xlink:href="#ah"/><use transform="matrix(0.05,0,0,0.05,12,0)" xlink:href="#R"/><use transform="matrix(0.05,0,0,0.05,22,0)" xlink:href="#Q"/><use transform="matrix(0.05,0,0,0.05,32,0)" xlink:href="#U"/><use transform="matrix(0.05,0,0,0.05,35.95,0)" xlink:href="#ab"/><use transform="matrix(0.05,0,0,0.05,40.95,0)" xlink:href="#ag"/><use transform="matrix(0.05,0,0,0.05,50.95,0)" xlink:href="#ad"/><use transform="matrix(0.05,0,0,0.05,56.900000000000006,0)" xlink:href="#U"/><use transform="matrix(0.05,0,0,0.05,60.85,0)" xlink:href="#R"/><use transform="matrix(0.05,0,0,0.05,70.85000000000001,0)" xlink:href="#V"/></g><path d="M63-220v92h138v28H63V0H30v-248h175v28H63" id="am"/><g id="r"><use transform="matrix(0.05,0,0,0.05,0,0)" xlink:href="#am"/><use transform="matrix(0.05,0,0,0.05,10.950000000000001,0)" xlink:href="#X"/></g><g id="s"><use transform="matrix(0.05,0,0,0.05,0,0)" xlink:href="#ac"/><use transform="matrix(0.05,0,0,0.05,10,0)" xlink:href="#R"/><use transform="matrix(0.05,0,0,0.05,20,0)" xlink:href="#Q"/><use transform="matrix(0.05,0,0,0.05,30,0)" xlink:href="#U"/><use transform="matrix(0.05,0,0,0.05,33.95,0)" xlink:href="#ab"/><use transform="matrix(0.05,0,0,0.05,38.95,0)" xlink:href="#ag"/><use transform="matrix(0.05,0,0,0.05,48.95,0)" xlink:href="#ad"/><use transform="matrix(0.05,0,0,0.05,54.900000000000006,0)" xlink:href="#U"/><use transform="matrix(0.05,0,0,0.05,58.85,0)" xlink:href="#R"/><use transform="matrix(0.05,0,0,0.05,68.85000000000001,0)" xlink:href="#V"/></g><g id="t"><use transform="matrix(0.05,0,0,0.05,0,0)" xlink:href="#Y"/><use transform="matrix(0.05,0,0,0.05,5,0)" xlink:href="#Z"/></g><g id="u"><use transform="matrix(0.05,0,0,0.05,0,0)" xlink:href="#Q"/><use transform="matrix(0.05,0,0,0.05,10,0)" xlink:href="#ac"/><use transform="matrix(0.05,0,0,0.05,20,0)" xlink:href="#af"/></g><g id="v"><use transform="matrix(0.05,0,0,0.05,0,0)" xlink:href="#ab"/><use transform="matrix(0.05,0,0,0.05,5,0)" xlink:href="#U"/><use transform="matrix(0.05,0,0,0.05,8.95,0)" xlink:href="#V"/><use transform="matrix(0.05,0,0,0.05,23.9,0)" xlink:href="#P"/></g><path d="M206 0h-36l-40-164L89 0H53L-1-190h32L70-26l43-164h34l41 164 42-164h31" id="an"/><path d="M143 0L79-87 56-68V0H24v-261h32v163l83-92h37l-77 82L181 0h-38" id="ao"/><g id="w"><use transform="matrix(0.05,0,0,0.05,0,0)" xlink:href="#an"/><use transform="matrix(0.05,0,0,0.05,12.950000000000001,0)" xlink:href="#P"/><use transform="matrix(0.05,0,0,0.05,22.950000000000003,0)" xlink:href="#P"/><use transform="matrix(0.05,0,0,0.05,32.95,0)" xlink:href="#ao"/></g><path d="M108 0H70L1-190h34L89-25l56-165h34" id="ap"/><g id="x"><use transform="matrix(0.05,0,0,0.05,0,0)" xlink:href="#U"/><use transform="matrix(0.05,0,0,0.05,3.95,0)" xlink:href="#ae"/><use transform="matrix(0.05,0,0,0.05,13.949999999999998,0)" xlink:href="#ab"/><use transform="matrix(0.05,0,0,0.05,18.95,0)" xlink:href="#P"/><use transform="matrix(0.05,0,0,0.05,28.950000000000003,0)" xlink:href="#ad"/><use transform="matrix(0.05,0,0,0.05,34.9,0)" xlink:href="#ap"/><use transform="matrix(0.05,0,0,0.05,43.9,0)" xlink:href="#ac"/><use transform="matrix(0.05,0,0,0.05,53.900000000000006,0)" xlink:href="#S"/></g><path d="M115-194c55 1 70 41 70 98S169 2 115 4C84 4 66-9 55-30l1 105H24l-1-265h31l2 30c10-21 28-34 59-34zm-8 174c40 0 45-34 45-75s-6-73-45-74c-42 0-51 32-51 76 0 43 10 73 51 73" id="aq"/><g id="y"><use transform="matrix(0.05,0,0,0.05,0,0)" xlink:href="#ab"/><use transform="matrix(0.05,0,0,0.05,5,0)" xlink:href="#af"/><use transform="matrix(0.05,0,0,0.05,14,0)" xlink:href="#aq"/><use transform="matrix(0.05,0,0,0.05,24,0)" xlink:href="#P"/></g><g id="z"><use transform="matrix(0.05,0,0,0.05,0,0)" xlink:href="#aq"/><use transform="matrix(0.05,0,0,0.05,10,0)" xlink:href="#ad"/><use transform="matrix(0.05,0,0,0.05,15.949999999999998,0)" xlink:href="#ag"/><use transform="matrix(0.05,0,0,0.05,25.950000000000003,0)" xlink:href="#ak"/><use transform="matrix(0.05,0,0,0.05,30.950000000000003,0)" xlink:href="#P"/><use transform="matrix(0.05,0,0,0.05,40.95,0)" xlink:href="#aa"/><use transform="matrix(0.05,0,0,0.05,49.95,0)" xlink:href="#aa"/><use transform="matrix(0.05,0,0,0.05,58.95,0)" xlink:href="#ag"/><use transform="matrix(0.05,0,0,0.05,68.95,0)" xlink:href="#ad"/></g><g id="A"><use transform="matrix(0.05,0,0,0.05,0,0)" xlink:href="#aj"/><use transform="matrix(0.05,0,0,0.05,10,0)" xlink:href="#ad"/><use transform="matrix(0.05,0,0,0.05,15.949999999999998,0)" xlink:href="#ag"/><use transform="matrix(0.05,0,0,0.05,25.950000000000003,0)" xlink:href="#R"/><use transform="matrix(0.05,0,0,0.05,35.95,0)" xlink:href="#aq"/></g><path d="M190 0L58-211 59 0H30v-248h39L202-35l-2-213h31V0h-41" id="ar"/><g id="B"><use transform="matrix(0.05,0,0,0.05,0,0)" xlink:href="#ar"/><use transform="matrix(0.05,0,0,0.05,12.950000000000001,0)" xlink:href="#ag"/></g><path d="M233-177c-1 41-23 64-60 70L243 0h-38l-65-103H63V0H30v-248c88 3 205-21 203 71zM63-129c60-2 137 13 137-47 0-61-80-42-137-45v92" id="as"/><g id="C"><use transform="matrix(0.05,0,0,0.05,0,0)" xlink:href="#as"/><use transform="matrix(0.05,0,0,0.05,12.950000000000001,0)" xlink:href="#P"/><use transform="matrix(0.05,0,0,0.05,22.950000000000003,0)" xlink:href="#aa"/><use transform="matrix(0.05,0,0,0.05,31.950000000000003,0)" xlink:href="#P"/><use transform="matrix(0.05,0,0,0.05,41.95,0)" xlink:href="#ad"/><use transform="matrix(0.05,0,0,0.05,47.900000000000006,0)" xlink:href="#ap"/><use transform="matrix(0.05,0,0,0.05,56.900000000000006,0)" xlink:href="#P"/><use transform="matrix(0.05,0,0,0.05,66.9,0)" xlink:href="#Q"/></g><g id="D"><use transform="matrix(0.05,0,0,0.05,0,0)" xlink:href="#R"/><use transform="matrix(0.05,0,0,0.05,10,0)" xlink:href="#aa"/><use transform="matrix(0.05,0,0,0.05,19,0)" xlink:href="#P"/><use transform="matrix(0.05,0,0,0.05,29,0)" xlink:href="#ad"/></g><g id="E"><use transform="matrix(0.05,0,0,0.05,0,0)" xlink:href="#Q"/><use transform="matrix(0.05,0,0,0.05,10,0)" xlink:href="#ac"/><use transform="matrix(0.05,0,0,0.05,20,0)" xlink:href="#ab"/><use transform="matrix(0.05,0,0,0.05,25,0)" xlink:href="#P"/></g><path d="M232-93c-1 65-40 97-104 97C67 4 28-28 28-90v-158h33c8 89-33 224 67 224 102 0 64-133 71-224h33v155" id="at"/><g id="F"><use transform="matrix(0.05,0,0,0.05,0,0)" xlink:href="#at"/><use transform="matrix(0.05,0,0,0.05,12.950000000000001,0)" xlink:href="#aa"/><use transform="matrix(0.05,0,0,0.05,21.950000000000003,0)" xlink:href="#P"/><use transform="matrix(0.05,0,0,0.05,31.950000000000003,0)" xlink:href="#ad"/></g><g id="G"><use transform="matrix(0.05,0,0,0.05,0,0)" xlink:href="#R"/><use transform="matrix(0.05,0,0,0.05,10,0)" xlink:href="#aa"/><use transform="matrix(0.05,0,0,0.05,19,0)" xlink:href="#P"/><use transform="matrix(0.05,0,0,0.05,29,0)" xlink:href="#ad"/><use transform="matrix(0.05,0,0,0.05,34.95,0)" xlink:href="#ae"/><use transform="matrix(0.05,0,0,0.05,44.95,0)" xlink:href="#ac"/><use transform="matrix(0.05,0,0,0.05,54.95,0)" xlink:href="#V"/><use transform="matrix(0.05,0,0,0.05,69.9,0)" xlink:href="#P"/></g><g id="H"><use transform="matrix(0.05,0,0,0.05,0,0)" xlink:href="#aq"/><use transform="matrix(0.05,0,0,0.05,10,0)" xlink:href="#ac"/><use transform="matrix(0.05,0,0,0.05,20,0)" xlink:href="#aa"/><use transform="matrix(0.05,0,0,0.05,29,0)" xlink:href="#aa"/><use transform="matrix(0.05,0,0,0.05,38,0)" xlink:href="#an"/><use transform="matrix(0.05,0,0,0.05,50.95,0)" xlink:href="#ag"/><use transform="matrix(0.05,0,0,0.05,60.95,0)" xlink:href="#ad"/><use transform="matrix(0.05,0,0,0.05,66.9,0)" xlink:href="#Q"/></g><g id="I"><use transform="matrix(0.05,0,0,0.05,0,0)" xlink:href="#ak"/><use transform="matrix(0.05,0,0,0.05,5,0)" xlink:href="#U"/><use transform="matrix(0.05,0,0,0.05,8.95,0)" xlink:href="#ad"/><use transform="matrix(0.05,0,0,0.05,14.899999999999999,0)" xlink:href="#aa"/><use transform="matrix(0.05,0,0,0.05,23.9,0)" xlink:href="#ab"/></g><g id="J"><use transform="matrix(0.05,0,0,0.05,0,0)" xlink:href="#ae"/><use transform="matrix(0.05,0,0,0.05,10,0)" xlink:href="#ac"/><use transform="matrix(0.05,0,0,0.05,20,0)" xlink:href="#V"/><use transform="matrix(0.05,0,0,0.05,34.95,0)" xlink:href="#P"/></g><g id="K"><use transform="matrix(0.05,0,0,0.05,0,0)" xlink:href="#S"/><use transform="matrix(0.05,0,0,0.05,3.95,0)" xlink:href="#ac"/><use transform="matrix(0.05,0,0,0.05,13.949999999999998,0)" xlink:href="#aa"/><use transform="matrix(0.05,0,0,0.05,22.95,0)" xlink:href="#ab"/></g><g id="L"><use transform="matrix(0.05,0,0,0.05,0,0)" xlink:href="#P"/><use transform="matrix(0.05,0,0,0.05,10,0)" xlink:href="#V"/><use transform="matrix(0.05,0,0,0.05,24.950000000000003,0)" xlink:href="#ac"/><use transform="matrix(0.05,0,0,0.05,34.95,0)" xlink:href="#U"/><use transform="matrix(0.05,0,0,0.05,38.900000000000006,0)" xlink:href="#S"/></g></defs></g></svg>