<svg xmlns="http://www.w3.org/2000/svg" xmlns:xlink="http://www.w3.org/1999/xlink" xmlns:lucid="lucid" width="1837.6" height="1020"><g transform="translate(-120 -160)" lucid:page-tab-id="0_0"><path d="M0 0h2047.9v1271.28H0z" fill="#fff"/><path d="M591 342.8H487.6c-4.16 0-7.6-3.4-7.6-7.54v-67.73c0-4.14 3.44-7.53 7.6-7.53H591c4.15 0 7.6 3.4 7.6 7.53v67.65c0 4.22-3.33 7.6-7.48 7.6H591zm-103.3-77.75c-1.4 0-2.6 1.08-2.6 2.48v67.65c0 1.4 1.2 2.56 2.6 2.56h103.42c1.42 0 2.5-1.16 2.5-2.56v-67.65c0-1.4-1.08-2.48-2.5-2.48zM589.8 375.72H488.82c-4.86-.03-8.78-3.93-8.78-8.78v-10.9c0-4.85 3.92-8.82 8.78-8.85H589.8c4.86 0 8.9 3.96 8.9 8.84v10.9c0 4.87-4.04 8.78-8.9 8.78zm-100.97-23.5c-2.02.02-3.68 1.74-3.68 3.82v10.9c0 2.08 1.66 3.73 3.68 3.76H589.8c2.13 0 3.8-1.7 3.8-3.82v-10.84c0-2.1-1.67-3.82-3.8-3.82z" stroke="#fff" stroke-opacity="0" fill="#232f3e"/><path d="M586.7 333.36H492c-1.4 0-2.5-1.15-2.5-2.5v-59c0-1.35 1.1-2.5 2.5-2.5h94.7c1.38 0 2.48 1.15 2.48 2.5v59c0 1.35-1.1 2.5-2.5 2.5zm-92.1-5.06h89.5v-53.9h-89.5zM558.25 356.63h28.42c1.67 0 2.5.84 2.5 2.52v4.72c0 1.68-.83 2.52-2.5 2.52h-28.42c-1.67 0-2.5-.85-2.5-2.53v-4.72c0-1.68.83-2.52 2.5-2.52z" stroke="#fff" stroke-opacity="0" fill="#232f3e"/><use xlink:href="#a" transform="matrix(1,0,0,1,450,384.72286497491507) translate(52.574074074074076 21.333333333333336)"/><path d="M1501.23 377.86h-64.86c-1.47 0-2.6-1.2-2.6-2.52V260.38c0-1.32 1.13-2.52 2.6-2.52h64.86c1.48 0 2.6 1.2 2.6 2.52v114.96c0 1.32-1.12 2.52-2.6 2.52zm-62.34-5.16h59.8V263.02h-59.8z" stroke="#fff" stroke-opacity="0" fill="#232f3e"/><path d="M1445.96 269.84h45.66v5.1h-45.66v-5.1zM1445.96 281.8h45.66v5.12h-45.66v-5.1zM1445.96 293.76h45.66v5.1h-45.66v-5.1zM1445.96 305.73h45.66v5.1h-45.66v-5.1z" stroke="#fff" stroke-opacity="0" fill="#232f3e"/><use xlink:href="#b" transform="matrix(1,0,0,1,1403.7768018018005,386.86143248745753) translate(24.018518518518512 21.333333333333336)"/><path d="M1038.8 420h858.8v680h-858.8z" stroke="#5a6c86" stroke-width="2" fill="#fff" fill-opacity="0"/><path d="M1038.8 420h56v56h-56v-56z" stroke="#fff" stroke-opacity="0" fill="#5a6c86"/><path d="M1078.05 468h-22.5c-.43 0-.8-.36-.8-.8v-38.4c0-.44.37-.8.8-.8h22.5c.44 0 .8.36.8.8v38.4c0 .44-.36.8-.8.8zm-21.66-1.6h20.8v-36.8h-20.8z" stroke="#fff" stroke-opacity="0" fill="#fff"/><path d="M1058.88 433.76h15.84v1.6h-15.84v-1.6zM1058.88 440.78h15.84v1.6h-15.84v-1.6zM1058.88 447.8h15.84v1.6h-15.84v-1.6z" stroke="#fff" stroke-opacity="0" fill="#fff"/><use xlink:href="#c" transform="matrix(1,0,0,1,1109.8018018018006,440) translate(0 21.333333333333336)"/><use xlink:href="#d" transform="matrix(1,0,0,1,1109.8018018018006,440) translate(85.77777777777779 21.333333333333336)"/><path d="M260 420h540v680H260z" stroke="#dd3522" stroke-width="2" fill="#fff" fill-opacity="0"/><use xlink:href="#e" transform="matrix(1,0,0,1,260,440) translate(205.7037037037037 21.333333333333336)"/><use xlink:href="#f" transform="matrix(1,0,0,1,260,440) translate(281.03703703703707 21.333333333333336)"/><path d="M379.02 520h320.65v140H379.02z" stroke="#dd3522" stroke-width="2" fill="#fff" fill-opacity="0"/><use xlink:href="#g" transform="matrix(1,0,0,1,379.01758844226424,540) translate(131.94444444444446 21.333333333333336)"/><path d="M420.33 580h240v60h-240z" stroke="#000" stroke-opacity="0" stroke-width="2" fill="#fff" fill-opacity="0"/><use xlink:href="#h" transform="matrix(1,0,0,1,425.3274705192307,585) translate(36.74074074074073 30.708333333333336)"/><use xlink:href="#i" transform="matrix(1,0,0,1,425.3274705192307,585) translate(115.55555555555556 30.708333333333336)"/><use xlink:href="#j" transform="matrix(1,0,0,1,425.3274705192307,585) translate(138.51851851851853 30.708333333333336)"/><path d="M379.02 720h320.65v140H379.02z" stroke="#dd3522" stroke-width="2" fill="#fff" fill-opacity="0"/><use xlink:href="#k" transform="matrix(1,0,0,1,379.01758844226424,740) translate(16.27777777777777 21.333333333333336)"/><use xlink:href="#l" transform="matrix(1,0,0,1,379.01758844226424,740) translate(153.83333333333334 21.333333333333336)"/><use xlink:href="#m" transform="matrix(1,0,0,1,379.01758844226424,740) translate(179.01851851851853 21.333333333333336)"/><use xlink:href="#n" transform="matrix(1,0,0,1,379.01758844226424,740) translate(109.46296296296295 53.333333333333336)"/><path d="M379.02 920h320.65v140H379.02z" stroke="#dd3522" stroke-width="2" fill="#fff" fill-opacity="0"/><use xlink:href="#o" transform="matrix(1,0,0,1,379.01758844226424,940) translate(85.7222222222222 21.333333333333336)"/><use xlink:href="#p" transform="matrix(1,0,0,1,379.01758844226424,940) translate(149.35185185185185 21.333333333333336)"/><path d="M379.02 804.28h320.65V860H379.02z" stroke="#000" stroke-opacity="0" stroke-width="2" fill="#fff" fill-opacity="0"/><use xlink:href="#q" transform="matrix(1,0,0,1,384.01758844226424,809.2771350250849) translate(22.67500000000001 14.4)"/><use xlink:href="#r" transform="matrix(1,0,0,1,384.01758844226424,809.2771350250849) translate(162.575 14.4)"/><use xlink:href="#s" transform="matrix(1,0,0,1,384.01758844226424,809.2771350250849) translate(187.27499999999998 14.4)"/><use xlink:href="#t" transform="matrix(1,0,0,1,384.01758844226424,809.2771350250849) translate(221.72499999999997 14.4)"/><use xlink:href="#u" transform="matrix(1,0,0,1,384.01758844226424,809.2771350250849) translate(101.175 36)"/><path d="M419.35 973h240v74h-240z" stroke="#000" stroke-opacity="0" stroke-width="2" fill="#fff" fill-opacity="0"/><use xlink:href="#v" transform="matrix(1,0,0,1,424.3450589615386,978) translate(2.3703703703703525 25.333333333333336)"/><use xlink:href="#w" transform="matrix(1,0,0,1,424.3450589615386,978) translate(135.4814814814815 25.333333333333336)"/><use xlink:href="#x" transform="matrix(1,0,0,1,424.3450589615386,978) translate(53.99999999999999 57.333333333333336)"/><use xlink:href="#y" transform="matrix(1,0,0,1,424.3450589615386,978) translate(74.74074074074073 57.333333333333336)"/><g filter="url(#z)" stroke="#fff" stroke-opacity="0"><path d="M1246.58 945.64h124.45v124.44h-124.45z" fill="#3b48cc"/><path d="M1368.8 947.88v119.97H1248.8V947.88h119.97m4.5-4.52h-129v129h129v-129z" fill="#fff"/><path d="M1309.55 969.16c-15.2 0-26.75 4.9-26.75 11.37v56.1c0 6.56 11.56 11.45 26.75 11.45 15.2 0 26.75-4.9 26.75-11.37v-56.1c0-6.55-11.5-11.44-26.75-11.44zm0 3c13.97 0 23.7 4.42 23.7 8.37 0 3.94-9.73 8.36-23.7 8.36-13.96 0-23.7-4.35-23.7-8.3 0-3.94 9.74-8.44 23.7-8.44zm0 72.92c-13.96 0-23.7-4.42-23.7-8.37v-11.82c4.4 3.63 13.1 6 23.7 6 10.65 0 19.32-2.37 23.7-6v11.83c0 3.96-9.73 8.38-23.7 8.38zm0-17.28c-13.96 0-23.7-4.34-23.7-8.3v-13.88c4.4 3.55 13.1 5.92 23.7 5.92 10.65 0 19.32-2.37 23.7-5.92v13.9c0 3.94-9.73 8.28-23.7 8.28zm0-19.34c-13.96 0-23.7-4.34-23.7-8.28v-14.3c4.4 3.64 13.1 6 23.7 6 10.65 0 19.32-2.36 23.7-6v14.22c0 3.94-9.73 8.36-23.7 8.36z" fill="#fff"/></g><path d="M1148.47 738.42h320.66V877.3h-320.66z" stroke="#000" stroke-width="2" fill="#fff"/><use xlink:href="#A" transform="matrix(1,0,0,1,1153.47433128257,743.4200238187268) translate(95.0925925925926 69.70833333333334)"/><use xlink:href="#B" transform="matrix(1,0,0,1,1153.47433128257,743.4200238187268) translate(172.94444444444446 69.70833333333334)"/><path d="M1308.8 922.74v-23.82" stroke="#666" stroke-width="3" fill="none"/><path d="M1308.8 938.5l-4.63-14.26h9.27zM1308.8 883.16l4.64 14.26h-9.27z" stroke="#666" stroke-width="3" fill="#666"/><path d="M1128.38 815.65l-408.6 166.57" stroke="#666" stroke-width="3" fill="none"/><path d="M1142.98 809.7l-11.46 9.67-3.5-8.58zM705.17 988.17l11.46-9.68 3.5 8.57z" stroke="#666" stroke-width="3" fill="#666"/><path d="M1148.47 538.42h320.66V677.3h-320.66z" stroke="#000" stroke-width="2" fill="#fff"/><use xlink:href="#C" transform="matrix(1,0,0,1,1153.47433128257,543.4200238187268) translate(142.2037037037037 37.458333333333336)"/><use xlink:href="#D" transform="matrix(1,0,0,1,1153.47433128257,543.4200238187268) translate(155.5 69.45833333333334)"/><use xlink:href="#E" transform="matrix(1,0,0,1,1153.47433128257,543.4200238187268) translate(84.53703703703704 101.45833333333334)"/><use xlink:href="#j" transform="matrix(1,0,0,1,1153.47433128257,543.4200238187268) translate(171.72222222222223 101.45833333333334)"/><path d="M1146.1 608.43l-426.33 173.8" stroke="#666" stroke-width="3" fill="none"/><path d="M1147.47 609.48l-.85.35-1.14-2.78 2-.8z" fill="#666"/><path d="M705.17 788.17l11.46-9.68 3.5 8.57z" stroke="#666" stroke-width="3" fill="#666"/><path d="M140 180h780v980H140z" fill="#fff" fill-opacity="0"/><path d="M157.73 180h11.82m11.8 0h11.83m11.82 0h11.82m11.82 0h11.8m11.83 0h11.82m11.8 0h11.83m11.82 0h11.8m11.83 0H335m11.82 0h11.82m11.8 0h11.83m11.82 0h11.8m11.83 0h11.82m11.8 0h11.83m11.82 0h11.82m11.82 0h11.8m11.83 0h11.82m11.8 0h11.83m11.82 0h11.8m11.83 0H595m11.82 0h11.82m11.8 0h11.83m11.82 0h11.8m11.83 0h11.82m11.8 0h11.83m11.82 0h11.82m11.82 0h11.8m11.83 0h11.82m11.8 0h11.83m11.82 0h11.8m11.83 0H855m11.82 0h11.82m11.8 0h11.83m11.82 0h5.9v5.98m0 11.95v11.95m0 11.95v11.95m0 11.95v11.95m0 11.95v11.96m0 11.94v11.95m0 11.94v11.95m0 11.94v11.95m0 11.94v11.96m0 11.95v11.95m0 11.95V425m0 11.95v11.95m0 11.95v11.95m0 11.96v11.95m0 11.96v11.95m0 11.96v11.95m0 11.96v11.95m0 11.97v11.95m0 11.95v11.95m0 11.95v11.95m0 11.95v11.95m0 11.96v11.95m0 11.95v11.95m0 11.95v11.95m0 11.95v11.95m0 11.96v11.94m0 11.95v11.94m0 11.95v11.94m0 11.95v11.94m0 11.96v11.95m0 11.95v11.95m0 11.95v11.95m0 11.95v11.95m0 11.95v11.96m0 11.95v11.96m0 11.95v11.96m0 11.95v11.96m0 11.95v11.97m0 11.95v11.95m0 11.95v11.95m0 11.95v11.95m0 11.95v5.98h-5.9m-11.83 0h-11.82m-11.8 0H866.8m-11.82 0h-11.82m-11.82 0h-11.8m-11.83 0H795.9m-11.8 0h-11.83m-11.82 0h-11.8m-11.83 0H725m-11.82 0h-11.82m-11.8 0h-11.83m-11.82 0h-11.8m-11.83 0h-11.82m-11.8 0H606.8m-11.82 0h-11.82m-11.82 0h-11.8m-11.83 0H535.9m-11.8 0h-11.83m-11.82 0h-11.8m-11.83 0H465m-11.82 0h-11.82m-11.8 0h-11.83m-11.82 0h-11.8m-11.83 0h-11.82m-11.8 0H346.8m-11.82 0h-11.82m-11.82 0h-11.8m-11.83 0H275.9m-11.8 0h-11.83m-11.82 0h-11.8m-11.83 0H205m-11.82 0h-11.82m-11.8 0h-11.83m-11.82 0H140v-5.98m0-11.95v-11.95m0-11.95v-11.95m0-11.95v-11.95m0-11.95v-11.96m0-11.94v-11.95m0-11.94v-11.95m0-11.94V986.7m0-11.94V962.8m0-11.95V938.9m0-11.95V915m0-11.95V891.1m0-11.95V867.2m0-11.96V843.3m0-11.96V819.4m0-11.96V795.5m0-11.96V771.6m0-11.97v-11.95m0-11.95v-11.95m0-11.95v-11.95m0-11.95v-11.95m0-11.96v-11.95m0-11.95v-11.95m0-11.95v-11.95m0-11.95v-11.95m0-11.96v-11.94m0-11.95v-11.94m0-11.95v-11.94m0-11.95v-11.94m0-11.96v-11.95m0-11.95v-11.95m0-11.95v-11.95m0-11.95v-11.95m0-11.95v-11.96m0-11.95v-11.96m0-11.95v-11.96m0-11.95v-11.96m0-11.95v-11.97m0-11.95v-11.95m0-11.95v-11.95m0-11.95v-11.95m0-11.95V180h5.9" stroke="#5a6c86" stroke-width="3" fill="none"/><g><use xlink:href="#F" transform="matrix(1,0,0,1,140,200) translate(291.53086419753083 28.444444444444446)"/></g><path d="M1000 180h937.6v980H1000z" fill="#fff" fill-opacity="0"/><path d="M1018.03 180h12.02m12.02 0h12.02m12 0h12.03m12.02 0h12.02m12.03 0h12.02m12.02 0h12.02m12.02 0h12.02m12.02 0h12.02m12.02 0h12.02m12.02 0h12.02m12.02 0h12.02m12.02 0h12.02m12.02 0h12.02m12.03 0h12.02m12 0h12.03m12.02 0h12.02m12.02 0h12m12.03 0h12.02m12.02 0h12.02m12 0h12.03m12.02 0h12.02m12.02 0h12m12.04 0h12.02m12.02 0H1583m12.02 0h12.02m12.02 0h12.02m12.02 0h12.02m12.02 0h12.02m12.02 0h12.02m12.02 0h12.02m12.02 0h12.02m12.03 0h12.03m12.02 0h12.02m12.02 0h12m12.03 0h12.02m12.02 0h12.02m12 0h12.03m12.02 0h12.02m12.02 0h6v5.98m0 11.95v11.95m0 11.95v11.95m0 11.95v11.95m0 11.95v11.96m0 11.94v11.95m0 11.94v11.95m0 11.94v11.95m0 11.94v11.96m0 11.95v11.95m0 11.95V425m0 11.95v11.95m0 11.95v11.95m0 11.96v11.95m0 11.96v11.95m0 11.96v11.95m0 11.96v11.95m0 11.97v11.95m0 11.95v11.95m0 11.95v11.95m0 11.95v11.95m0 11.96v11.95m0 11.95v11.95m0 11.95v11.95m0 11.95v11.95m0 11.96v11.94m0 11.95v11.94m0 11.95v11.94m0 11.95v11.94m0 11.96v11.95m0 11.95v11.95m0 11.95v11.95m0 11.95v11.95m0 11.95v11.96m0 11.95v11.96m0 11.95v11.96m0 11.95v11.96m0 11.95v11.97m0 11.95v11.95m0 11.95v11.95m0 11.95v11.95m0 11.95v5.98h-6m-12.03 0h-12.02m-12.02 0h-12.02m-12 0h-12.03m-12.02 0h-12.02m-12.02 0h-12m-12.03 0h-12.02m-12.02 0h-12.02m-12.02 0h-12.02m-12.02 0h-12.02m-12.02 0h-12.02m-12.02 0h-12.02m-12.02 0h-12.02m-12.02 0h-12.02m-12.02 0h-12.02m-12.02 0h-12.02m-12.02 0h-12.02m-12.03 0h-12m-12.03 0h-12.02m-12.02 0h-12.02m-12 0h-12.03m-12.02 0h-12.02m-12.02 0h-12m-12.03 0h-12.02m-12.02 0h-12.02m-12 0h-12.03m-12.03 0h-12.02m-12.02 0h-12.02m-12.02 0h-12.02m-12.02 0h-12.02m-12.02 0h-12.02m-12.02 0h-12.02m-12.02 0h-12.02m-12.02 0h-12.02m-12.02 0h-12.02m-12.03 0h-12.02m-12.02 0h-12.02m-12 0h-12.03m-12.02 0h-12.02m-12.02 0h-6v-5.98m0-11.95v-11.95m0-11.95v-11.95m0-11.95v-11.95m0-11.95v-11.96m0-11.94v-11.95m0-11.94v-11.95m0-11.94V986.7m0-11.94V962.8m0-11.95V938.9m0-11.95V915m0-11.95V891.1m0-11.95V867.2m0-11.96V843.3m0-11.96V819.4m0-11.96V795.5m0-11.96V771.6m0-11.97v-11.95m0-11.95v-11.95m0-11.95v-11.95m0-11.95v-11.95m0-11.96v-11.95m0-11.95v-11.95m0-11.95v-11.95m0-11.95v-11.95m0-11.96v-11.94m0-11.95v-11.94m0-11.95v-11.94m0-11.95v-11.94m0-11.96v-11.95m0-11.95v-11.95m0-11.95v-11.95m0-11.95v-11.95m0-11.95v-11.96m0-11.95v-11.96m0-11.95v-11.96m0-11.95v-11.96m0-11.95v-11.97m0-11.95v-11.95m0-11.95v-11.95m0-11.95v-11.95m0-11.95V180h6" stroke="#5a6c86" stroke-width="3" fill="none"/><g><use xlink:href="#G" transform="matrix(1,0,0,1,1000,200) translate(393.94444444444446 24.888888888888893)"/></g><path d="M539.35 681.62v17.76" stroke="#666" stroke-width="3" fill="none"/><path d="M539.35 665.85l4.63 14.27h-9.27zM539.35 715.15l-4.64-14.27H544z" stroke="#666" stroke-width="3" fill="#666"/><path d="M539.35 881.62v16.76" stroke="#666" stroke-width="3" fill="none"/><path d="M539.35 865.85l4.63 14.27h-9.27zM539.35 914.15l-4.64-14.27H544z" stroke="#666" stroke-width="3" fill="#666"/><path d="M1540 938.42h320.65v138.88H1540z" stroke="#000" stroke-width="2" fill="#fff"/><g><use xlink:href="#H" transform="matrix(1,0,0,1,1545,943.4200238187268) translate(54.16666666666666 69.70833333333334)"/><use xlink:href="#I" transform="matrix(1,0,0,1,1545,943.4200238187268) translate(181.42592592592592 69.70833333333334)"/></g><path d="M1471.63 807.9l26 .52 23.8 1.5 20.5 2.14 17.66 2.6 15.25 2.9 13.24 3.1 11.56 3.22 10.16 3.3 8.98 3.34 7.98 3.35 7.13 3.35 6.4 3.34 5.8 3.33 5.2 3.3 4.77 3.3 4.34 3.3 3.98 3.3 3.65 3.28 3.36 3.28 3.1 3.3 2.85 3.32 2.65 3.34 2.46 3.38 2.27 3.42 2.1 3.47 1.94 3.52 1.8 3.6 1.64 3.7 1.5 3.8 1.37 3.9 1.22 4.03 1.06 4.2.93 4.35.3 1.9" stroke="#666" stroke-width="3" fill="none"/><path d="M1471.7 806.4l-.06 3-1.5-.04v-3z" fill="#666"/><path d="M1699.92 932.58l-5.8-13.83 9.23-.77z" stroke="#666" stroke-width="3" fill="#666"/><path d="M1537.5 1007.86h-143.58" stroke="#666" stroke-width="3" fill="none"/><path d="M1539 1009.36h-1.54v-3h1.54z" fill="#666"/><path d="M1378.16 1007.86l14.26-4.63v9.27z" stroke="#666" stroke-width="3" fill="#666"/><defs><path d="M67-125c0 53 21 87 73 88 37 1 54-22 65-47l45 17C233-25 199 4 140 4 58 4 20-42 15-125 8-235 124-281 211-232c18 10 29 29 36 50l-46 12c-8-25-30-41-62-41-52 0-71 34-72 86" id="J"/><path d="M25 0v-261h50V0H25" id="K"/><path d="M25-224v-37h50v37H25zM25 0v-190h50V0H25" id="L"/><path d="M185-48c-13 30-37 53-82 52C43 2 14-33 14-96s30-98 90-98c62 0 83 45 84 108H66c0 31 8 55 39 56 18 0 30-7 34-22zm-45-69c5-46-57-63-70-21-2 6-4 13-4 21h74" id="M"/><path d="M135-194c87-1 58 113 63 194h-50c-7-57 23-157-34-157-59 0-34 97-39 157H25l-1-190h47c2 12-1 28 3 38 12-26 28-41 61-42" id="N"/><path d="M115-3C79 11 28 4 28-45v-112H4v-33h27l15-45h31v45h36v33H77v99c-1 23 16 31 38 25v30" id="O"/><g id="a"><use transform="matrix(0.07407407407407408,0,0,0.07407407407407408,0,0)" xlink:href="#J"/><use transform="matrix(0.07407407407407408,0,0,0.07407407407407408,19.185185185185187,0)" xlink:href="#K"/><use transform="matrix(0.07407407407407408,0,0,0.07407407407407408,26.592592592592595,0)" xlink:href="#L"/><use transform="matrix(0.07407407407407408,0,0,0.07407407407407408,34,0)" xlink:href="#M"/><use transform="matrix(0.07407407407407408,0,0,0.07407407407407408,48.81481481481481,0)" xlink:href="#N"/><use transform="matrix(0.07407407407407408,0,0,0.07407407407407408,65.03703703703704,0)" xlink:href="#O"/></g><path d="M169-182c-1-43-94-46-97-3 18 66 151 10 154 114 3 95-165 93-204 36-6-8-10-19-12-30l50-8c3 46 112 56 116 5-17-69-150-10-154-114-4-87 153-88 188-35 5 8 8 18 10 28" id="P"/><path d="M135-150c-39-12-60 13-60 57V0H25l-1-190h47c2 13-1 29 3 40 6-28 27-53 61-41v41" id="Q"/><path d="M128 0H69L1-190h53L99-40l48-150h52" id="R"/><g id="b"><use transform="matrix(0.07407407407407408,0,0,0.07407407407407408,0,0)" xlink:href="#P"/><use transform="matrix(0.07407407407407408,0,0,0.07407407407407408,17.77777777777778,0)" xlink:href="#M"/><use transform="matrix(0.07407407407407408,0,0,0.07407407407407408,32.592592592592595,0)" xlink:href="#Q"/><use transform="matrix(0.07407407407407408,0,0,0.07407407407407408,42.96296296296297,0)" xlink:href="#R"/><use transform="matrix(0.07407407407407408,0,0,0.07407407407407408,57.777777777777786,0)" xlink:href="#M"/><use transform="matrix(0.07407407407407408,0,0,0.07407407407407408,72.59259259259261,0)" xlink:href="#Q"/></g><path fill="#5a6c86" d="M185-189c-5-48-123-54-124 2 14 75 158 14 163 119 3 78-121 87-175 55-17-10-28-26-33-46l33-7c5 56 141 63 141-1 0-78-155-14-162-118-5-82 145-84 179-34 5 7 8 16 11 25" id="S"/><path fill="#5a6c86" d="M100-194c63 0 86 42 84 106H49c0 40 14 67 53 68 26 1 43-12 49-29l28 8c-11 28-37 45-77 45C44 4 14-33 15-96c1-61 26-98 85-98zm52 81c6-60-76-77-97-28-3 7-6 17-6 28h103" id="T"/><path fill="#5a6c86" d="M114-163C36-179 61-72 57 0H25l-1-190h30c1 12-1 29 2 39 6-27 23-49 58-41v29" id="U"/><path fill="#5a6c86" d="M108 0H70L1-190h34L89-25l56-165h34" id="V"/><g id="c"><use transform="matrix(0.07407407407407408,0,0,0.07407407407407408,0,0)" xlink:href="#S"/><use transform="matrix(0.07407407407407408,0,0,0.07407407407407408,17.77777777777778,0)" xlink:href="#T"/><use transform="matrix(0.07407407407407408,0,0,0.07407407407407408,32.592592592592595,0)" xlink:href="#U"/><use transform="matrix(0.07407407407407408,0,0,0.07407407407407408,41.40740740740741,0)" xlink:href="#V"/><use transform="matrix(0.07407407407407408,0,0,0.07407407407407408,54.74074074074075,0)" xlink:href="#T"/><use transform="matrix(0.07407407407407408,0,0,0.07407407407407408,69.55555555555557,0)" xlink:href="#U"/></g><path fill="#5a6c86" d="M24-231v-30h32v30H24zM24 0v-190h32V0H24" id="W"/><path fill="#5a6c86" d="M85-194c31 0 48 13 60 33l-1-100h32l1 261h-30c-2-10 0-23-3-31C134-8 116 4 85 4 32 4 16-35 15-94c0-66 23-100 70-100zm9 24c-40 0-46 34-46 75 0 40 6 74 45 74 42 0 51-32 51-76 0-42-9-74-50-73" id="X"/><g id="d"><use transform="matrix(0.07407407407407408,0,0,0.07407407407407408,0,0)" xlink:href="#S"/><use transform="matrix(0.07407407407407408,0,0,0.07407407407407408,17.77777777777778,0)" xlink:href="#W"/><use transform="matrix(0.07407407407407408,0,0,0.07407407407407408,23.629629629629633,0)" xlink:href="#X"/><use transform="matrix(0.07407407407407408,0,0,0.07407407407407408,38.44444444444445,0)" xlink:href="#T"/></g><path fill="#dd3522" d="M212-179c-10-28-35-45-73-45-59 0-87 40-87 99 0 60 29 101 89 101 43 0 62-24 78-52l27 14C228-24 195 4 139 4 59 4 22-46 18-125c-6-104 99-153 187-111 19 9 31 26 39 46" id="Y"/><path fill="#dd3522" d="M24 0v-261h32V0H24" id="Z"/><path fill="#dd3522" d="M24-231v-30h32v30H24zM24 0v-190h32V0H24" id="aa"/><path fill="#dd3522" d="M100-194c63 0 86 42 84 106H49c0 40 14 67 53 68 26 1 43-12 49-29l28 8c-11 28-37 45-77 45C44 4 14-33 15-96c1-61 26-98 85-98zm52 81c6-60-76-77-97-28-3 7-6 17-6 28h103" id="ab"/><path fill="#dd3522" d="M117-194c89-4 53 116 60 194h-32v-121c0-31-8-49-39-48C34-167 62-67 57 0H25l-1-190h30c1 10-1 24 2 32 11-22 29-35 61-36" id="ac"/><path fill="#dd3522" d="M59-47c-2 24 18 29 38 22v24C64 9 27 4 27-40v-127H5v-23h24l9-43h21v43h35v23H59v120" id="ad"/><g id="e"><use transform="matrix(0.07407407407407408,0,0,0.07407407407407408,0,0)" xlink:href="#Y"/><use transform="matrix(0.07407407407407408,0,0,0.07407407407407408,19.185185185185187,0)" xlink:href="#Z"/><use transform="matrix(0.07407407407407408,0,0,0.07407407407407408,25.037037037037035,0)" xlink:href="#aa"/><use transform="matrix(0.07407407407407408,0,0,0.07407407407407408,30.888888888888893,0)" xlink:href="#ab"/><use transform="matrix(0.07407407407407408,0,0,0.07407407407407408,45.70370370370371,0)" xlink:href="#ac"/><use transform="matrix(0.07407407407407408,0,0,0.07407407407407408,60.518518518518526,0)" xlink:href="#ad"/></g><path fill="#dd3522" d="M185-189c-5-48-123-54-124 2 14 75 158 14 163 119 3 78-121 87-175 55-17-10-28-26-33-46l33-7c5 56 141 63 141-1 0-78-155-14-162-118-5-82 145-84 179-34 5 7 8 16 11 25" id="ae"/><path fill="#dd3522" d="M85-194c31 0 48 13 60 33l-1-100h32l1 261h-30c-2-10 0-23-3-31C134-8 116 4 85 4 32 4 16-35 15-94c0-66 23-100 70-100zm9 24c-40 0-46 34-46 75 0 40 6 74 45 74 42 0 51-32 51-76 0-42-9-74-50-73" id="af"/><g id="f"><use transform="matrix(0.07407407407407408,0,0,0.07407407407407408,0,0)" xlink:href="#ae"/><use transform="matrix(0.07407407407407408,0,0,0.07407407407407408,17.77777777777778,0)" xlink:href="#aa"/><use transform="matrix(0.07407407407407408,0,0,0.07407407407407408,23.629629629629633,0)" xlink:href="#af"/><use transform="matrix(0.07407407407407408,0,0,0.07407407407407408,38.44444444444445,0)" xlink:href="#ab"/></g><path fill="#dd3522" d="M137 0h-34L2-248h35l83 218 83-218h36" id="ag"/><path fill="#dd3522" d="M206 0h-36l-40-164L89 0H53L-1-190h32L70-26l43-164h34l41 164 42-164h31" id="ah"/><g id="g"><use transform="matrix(0.07407407407407408,0,0,0.07407407407407408,0,0)" xlink:href="#ag"/><use transform="matrix(0.07407407407407408,0,0,0.07407407407407408,17.25925925925926,0)" xlink:href="#aa"/><use transform="matrix(0.07407407407407408,0,0,0.07407407407407408,23.111111111111114,0)" xlink:href="#ab"/><use transform="matrix(0.07407407407407408,0,0,0.07407407407407408,37.92592592592593,0)" xlink:href="#ah"/></g><path d="M197 0v-115H63V0H30v-248h33v105h134v-105h34V0h-34" id="ai"/><path d="M127-220V0H93v-220H8v-28h204v28h-85" id="aj"/><path d="M240 0l2-218c-23 76-54 145-80 218h-23L58-218 59 0H30v-248h44l77 211c21-75 51-140 76-211h43V0h-30" id="ak"/><path d="M30 0v-248h33v221h125V0H30" id="al"/><g id="h"><use transform="matrix(0.07407407407407408,0,0,0.07407407407407408,0,0)" xlink:href="#ai"/><use transform="matrix(0.07407407407407408,0,0,0.07407407407407408,19.185185185185187,0)" xlink:href="#aj"/><use transform="matrix(0.07407407407407408,0,0,0.07407407407407408,35.40740740740741,0)" xlink:href="#ak"/><use transform="matrix(0.07407407407407408,0,0,0.07407407407407408,57.555555555555564,0)" xlink:href="#al"/></g><path d="M118-107v75H92v-75H18v-26h74v-75h26v75h74v26h-74" id="am"/><use transform="matrix(0.07407407407407408,0,0,0.07407407407407408,0,0)" xlink:href="#am" id="i"/><path d="M212-179c-10-28-35-45-73-45-59 0-87 40-87 99 0 60 29 101 89 101 43 0 62-24 78-52l27 14C228-24 195 4 139 4 59 4 22-46 18-125c-6-104 99-153 187-111 19 9 31 26 39 46" id="an"/><path d="M185-189c-5-48-123-54-124 2 14 75 158 14 163 119 3 78-121 87-175 55-17-10-28-26-33-46l33-7c5 56 141 63 141-1 0-78-155-14-162-118-5-82 145-84 179-34 5 7 8 16 11 25" id="ao"/><g id="j"><use transform="matrix(0.07407407407407408,0,0,0.07407407407407408,0,0)" xlink:href="#an"/><use transform="matrix(0.07407407407407408,0,0,0.07407407407407408,19.185185185185187,0)" xlink:href="#ao"/><use transform="matrix(0.07407407407407408,0,0,0.07407407407407408,36.96296296296296,0)" xlink:href="#ao"/></g><path fill="#dd3522" d="M205 0l-28-72H64L36 0H1l101-248h38L239 0h-34zm-38-99l-47-123c-12 45-31 82-46 123h93" id="ap"/><path fill="#dd3522" d="M115-194c55 1 70 41 70 98S169 2 115 4C84 4 66-9 55-30l1 105H24l-1-265h31l2 30c10-21 28-34 59-34zm-8 174c40 0 45-34 45-75s-6-73-45-74c-42 0-51 32-51 76 0 43 10 73 51 73" id="aq"/><path fill="#dd3522" d="M96-169c-40 0-48 33-48 73s9 75 48 75c24 0 41-14 43-38l32 2c-6 37-31 61-74 61-59 0-76-41-82-99-10-93 101-131 147-64 4 7 5 14 7 22l-32 3c-4-21-16-35-41-35" id="ar"/><path fill="#dd3522" d="M141-36C126-15 110 5 73 4 37 3 15-17 15-53c-1-64 63-63 125-63 3-35-9-54-41-54-24 1-41 7-42 31l-33-3c5-37 33-52 76-52 45 0 72 20 72 64v82c-1 20 7 32 28 27v20c-31 9-61-2-59-35zM48-53c0 20 12 33 32 33 41-3 63-29 60-74-43 2-92-5-92 41" id="as"/><path fill="#dd3522" d="M100-194c62-1 85 37 85 99 1 63-27 99-86 99S16-35 15-95c0-66 28-99 85-99zM99-20c44 1 53-31 53-75 0-43-8-75-51-75s-53 32-53 75 10 74 51 75" id="at"/><g id="k"><use transform="matrix(0.07407407407407408,0,0,0.07407407407407408,0,0)" xlink:href="#ap"/><use transform="matrix(0.07407407407407408,0,0,0.07407407407407408,17.77777777777778,0)" xlink:href="#aq"/><use transform="matrix(0.07407407407407408,0,0,0.07407407407407408,32.592592592592595,0)" xlink:href="#aq"/><use transform="matrix(0.07407407407407408,0,0,0.07407407407407408,47.40740740740741,0)" xlink:href="#Z"/><use transform="matrix(0.07407407407407408,0,0,0.07407407407407408,53.25925925925927,0)" xlink:href="#aa"/><use transform="matrix(0.07407407407407408,0,0,0.07407407407407408,59.11111111111112,0)" xlink:href="#ar"/><use transform="matrix(0.07407407407407408,0,0,0.07407407407407408,72.44444444444446,0)" xlink:href="#as"/><use transform="matrix(0.07407407407407408,0,0,0.07407407407407408,87.25925925925927,0)" xlink:href="#ad"/><use transform="matrix(0.07407407407407408,0,0,0.07407407407407408,94.66666666666669,0)" xlink:href="#aa"/><use transform="matrix(0.07407407407407408,0,0,0.07407407407407408,100.51851851851852,0)" xlink:href="#at"/><use transform="matrix(0.07407407407407408,0,0,0.07407407407407408,115.33333333333334,0)" xlink:href="#ac"/></g><path fill="#dd3522" d="M234-2c-28 10-62 0-77-18C117 19 8 12 13-65c3-43 29-61 60-76-25-40-17-114 47-108 35 3 59 15 59 50 0 44-40 53-71 69 14 26 32 50 51 72 14-21 24-43 30-72l26 8c-9 33-21 57-38 82 13 13 33 22 57 15v23zM97-151c25-10 52-18 56-48-1-18-13-29-33-29-42 0-39 50-23 77zM42-66c-3 51 71 58 98 28-20-24-41-51-56-80-23 10-40 24-42 52" id="au"/><use transform="matrix(0.07407407407407408,0,0,0.07407407407407408,0,0)" xlink:href="#au" id="l"/><path fill="#dd3522" d="M190 0L58-211 59 0H30v-248h39L202-35l-2-213h31V0h-41" id="av"/><path fill="#dd3522" d="M108 0H70L1-190h34L89-25l56-165h34" id="aw"/><path fill="#dd3522" d="M177-190C167-65 218 103 67 71c-23-6-38-20-44-43l32-5c15 47 100 32 89-28v-30C133-14 115 1 83 1 29 1 15-40 15-95c0-56 16-97 71-98 29-1 48 16 59 35 1-10 0-23 2-32h30zM94-22c36 0 50-32 50-73 0-42-14-75-50-75-39 0-46 34-46 75s6 73 46 73" id="ax"/><g id="m"><use transform="matrix(0.07407407407407408,0,0,0.07407407407407408,0,0)" xlink:href="#av"/><use transform="matrix(0.07407407407407408,0,0,0.07407407407407408,19.185185185185187,0)" xlink:href="#as"/><use transform="matrix(0.07407407407407408,0,0,0.07407407407407408,34,0)" xlink:href="#aw"/><use transform="matrix(0.07407407407407408,0,0,0.07407407407407408,47.33333333333334,0)" xlink:href="#aa"/><use transform="matrix(0.07407407407407408,0,0,0.07407407407407408,53.18518518518519,0)" xlink:href="#ax"/><use transform="matrix(0.07407407407407408,0,0,0.07407407407407408,68,0)" xlink:href="#as"/><use transform="matrix(0.07407407407407408,0,0,0.07407407407407408,82.81481481481481,0)" xlink:href="#ad"/><use transform="matrix(0.07407407407407408,0,0,0.07407407407407408,90.22222222222221,0)" xlink:href="#aa"/><use transform="matrix(0.07407407407407408,0,0,0.07407407407407408,96.07407407407408,0)" xlink:href="#at"/><use transform="matrix(0.07407407407407408,0,0,0.07407407407407408,110.88888888888889,0)" xlink:href="#ac"/></g><path fill="#dd3522" d="M114-163C36-179 61-72 57 0H25l-1-190h30c1 12-1 29 2 39 6-27 23-49 58-41v29" id="ay"/><path fill="#dd3522" d="M135-143c-3-34-86-38-87 0 15 53 115 12 119 90S17 21 10-45l28-5c4 36 97 45 98 0-10-56-113-15-118-90-4-57 82-63 122-42 12 7 21 19 24 35" id="az"/><g id="n"><use transform="matrix(0.07407407407407408,0,0,0.07407407407407408,0,0)" xlink:href="#ae"/><use transform="matrix(0.07407407407407408,0,0,0.07407407407407408,17.77777777777778,0)" xlink:href="#ab"/><use transform="matrix(0.07407407407407408,0,0,0.07407407407407408,32.592592592592595,0)" xlink:href="#ay"/><use transform="matrix(0.07407407407407408,0,0,0.07407407407407408,41.40740740740741,0)" xlink:href="#aw"/><use transform="matrix(0.07407407407407408,0,0,0.07407407407407408,54.74074074074075,0)" xlink:href="#aa"/><use transform="matrix(0.07407407407407408,0,0,0.07407407407407408,60.5925925925926,0)" xlink:href="#ar"/><use transform="matrix(0.07407407407407408,0,0,0.07407407407407408,73.92592592592594,0)" xlink:href="#ab"/><use transform="matrix(0.07407407407407408,0,0,0.07407407407407408,88.74074074074078,0)" xlink:href="#az"/></g><path fill="#dd3522" d="M30-248c118-7 216 8 213 122C240-48 200 0 122 0H30v-248zM63-27c89 8 146-16 146-99s-60-101-146-95v194" id="aA"/><g id="o"><use transform="matrix(0.07407407407407408,0,0,0.07407407407407408,0,0)" xlink:href="#aA"/><use transform="matrix(0.07407407407407408,0,0,0.07407407407407408,19.185185185185187,0)" xlink:href="#as"/><use transform="matrix(0.07407407407407408,0,0,0.07407407407407408,34,0)" xlink:href="#ad"/><use transform="matrix(0.07407407407407408,0,0,0.07407407407407408,41.407407407407405,0)" xlink:href="#as"/></g><g id="p"><use transform="matrix(0.07407407407407408,0,0,0.07407407407407408,0,0)" xlink:href="#ap"/><use transform="matrix(0.07407407407407408,0,0,0.07407407407407408,17.77777777777778,0)" xlink:href="#ar"/><use transform="matrix(0.07407407407407408,0,0,0.07407407407407408,31.111111111111114,0)" xlink:href="#ar"/><use transform="matrix(0.07407407407407408,0,0,0.07407407407407408,44.44444444444445,0)" xlink:href="#ab"/><use transform="matrix(0.07407407407407408,0,0,0.07407407407407408,59.25925925925927,0)" xlink:href="#az"/><use transform="matrix(0.07407407407407408,0,0,0.07407407407407408,72.59259259259261,0)" xlink:href="#az"/></g><path d="M240 0l2-218c-23 76-54 145-80 218h-23L58-218 59 0H30v-248h44l77 211c21-75 51-140 76-211h43V0h-30" id="aB"/><path d="M141-36C126-15 110 5 73 4 37 3 15-17 15-53c-1-64 63-63 125-63 3-35-9-54-41-54-24 1-41 7-42 31l-33-3c5-37 33-52 76-52 45 0 72 20 72 64v82c-1 20 7 32 28 27v20c-31 9-61-2-59-35zM48-53c0 20 12 33 32 33 41-3 63-29 60-74-43 2-92-5-92 41" id="aC"/><path d="M115-194c55 1 70 41 70 98S169 2 115 4C84 4 66-9 55-30l1 105H24l-1-265h31l2 30c10-21 28-34 59-34zm-8 174c40 0 45-34 45-75s-6-73-45-74c-42 0-51 32-51 76 0 43 10 73 51 73" id="aD"/><path d="M25 0v-190h32v167h72v-167h31v167h72v-167h32V0H25" id="aE"/><path d="M179-190L93 31C79 59 56 82 12 73V49c39 6 53-20 64-50L1-190h34L92-34l54-156h33" id="aF"/><path d="M6-190h153v23H98V0H67v-167H6v-23" id="aG"/><path d="M56-190L54-37l88-153h34V0h-30l2-153L59 0H25v-190h31" id="aH"/><path d="M152-53C154 19 21 22 9-41l28-8c5 36 84 42 81-4-1-29-28-34-58-35v-24c28 0 55-4 55-30 0-19-14-29-34-28-20 0-35 7-38 25l-28-3c4-33 30-46 66-46 37 0 66 15 66 50 0 27-20 41-44 44 27 5 48 17 49 47" id="aI"/><path d="M57-190v167h83v-167h32v167h26v95h-29V0H25v-190h32" id="aJ"/><path d="M20-138c-1-64 85-51 150-52V0h-32v-81H94L39 0H3l60-83c-28-5-43-24-43-55zm33 3c0 40 46 33 85 33v-66c-39 0-85-6-85 33" id="aK"/><g id="q"><use transform="matrix(0.05,0,0,0.05,0,0)" xlink:href="#aB"/><use transform="matrix(0.05,0,0,0.05,15.15,0)" xlink:href="#aC"/><use transform="matrix(0.05,0,0,0.05,25.15,0)" xlink:href="#aD"/><use transform="matrix(0.05,0,0,0.05,35.15,0)" xlink:href="#aE"/><use transform="matrix(0.05,0,0,0.05,49.55,0)" xlink:href="#aD"/><use transform="matrix(0.05,0,0,0.05,59.349999999999994,0)" xlink:href="#aF"/><use transform="matrix(0.05,0,0,0.05,68.35,0)" xlink:href="#aG"/><use transform="matrix(0.05,0,0,0.05,76.55,0)" xlink:href="#aH"/><use transform="matrix(0.05,0,0,0.05,86.6,0)" xlink:href="#aI"/><use transform="matrix(0.05,0,0,0.05,94.85,0)" xlink:href="#aC"/><use transform="matrix(0.05,0,0,0.05,104.84999999999998,0)" xlink:href="#aJ"/><use transform="matrix(0.05,0,0,0.05,115.14999999999998,0)" xlink:href="#aH"/><use transform="matrix(0.05,0,0,0.05,125.19999999999999,0)" xlink:href="#aK"/></g><path d="M170-190V0h-32v-167H57V0H25v-190h145" id="aL"/><path d="M100-194c62-1 85 37 85 99 1 63-27 99-86 99S16-35 15-95c0-66 28-99 85-99zM99-20c44 1 53-31 53-75 0-43-8-75-51-75s-53 32-53 75 10 74 51 75" id="aM"/><g id="r"><use transform="matrix(0.05,0,0,0.05,0,0)" xlink:href="#aL"/><use transform="matrix(0.05,0,0,0.05,9.700000000000001,0)" xlink:href="#aM"/></g><path d="M176-55C176 11 93 0 25 0v-190c61 3 142-15 144 47 1 29-21 35-39 44 27 3 46 16 46 44zm-34 0c0-41-47-30-85-32v64c38-1 85 8 85-32zm-6-83c0-36-44-26-79-28v56c34-2 79 8 79-28" id="aN"/><path d="M100-194c63 0 86 42 84 106H49c0 40 14 67 53 68 26 1 43-12 49-29l28 8c-11 28-37 45-77 45C44 4 14-33 15-96c1-61 26-98 85-98zm52 81c6-60-76-77-97-28-3 7-6 17-6 28h103" id="aO"/><path d="M105-20c41 1 53-27 53-68 0-40-9-69-50-69s-54 27-54 69c0 40 12 68 51 68zM47-134c10-28 31-47 68-47 56 0 76 33 76 92 1 60-28 90-86 93C-9 9 1-201 72-238c29-15 73-21 110-26v28c-67 12-144 10-135 102" id="aP"/><g id="s"><use transform="matrix(0.05,0,0,0.05,0,0)" xlink:href="#aN"/><use transform="matrix(0.05,0,0,0.05,9.350000000000001,0)" xlink:href="#aO"/><use transform="matrix(0.05,0,0,0.05,19.150000000000002,0)" xlink:href="#aP"/></g><path d="M96-169c-40 0-48 33-48 73s9 75 48 75c24 0 41-14 43-38l32 2c-6 37-31 61-74 61-59 0-76-41-82-99-10-93 101-131 147-64 4 7 5 14 7 22l-32 3c-4-21-16-35-41-35" id="aQ"/><g id="t"><use transform="matrix(0.05,0,0,0.05,0,0)" xlink:href="#aQ"/><use transform="matrix(0.05,0,0,0.05,9,0)" xlink:href="#aO"/><use transform="matrix(0.05,0,0,0.05,19,0)" xlink:href="#aD"/><use transform="matrix(0.05,0,0,0.05,29,0)" xlink:href="#aN"/><use transform="matrix(0.05,0,0,0.05,38.55,0)" xlink:href="#aH"/><use transform="matrix(0.05,0,0,0.05,48.599999999999994,0)" xlink:href="#aQ"/><use transform="matrix(0.05,0,0,0.05,57.599999999999994,0)" xlink:href="#aF"/></g><path d="M87 75C49 33 22-17 22-94c0-76 28-126 65-167h31c-38 41-64 92-64 168S80 34 118 75H87" id="aR"/><path d="M75-87c-4 1-14 3-19 3V0H24v-190h32v83c26-2 31-21 43-41l26-42h33l-61 86L159 0h-35" id="aS"/><path d="M57-190v80h85v-80h32V0h-32v-87H57V0H25v-190h32" id="aT"/><path d="M153 0v-167H87C74-108 81-27 38 0 29 5 12 6 2 1v-22c51 4 39-64 49-112 5-25 4-25 8-57h126V0h-32" id="aU"/><path d="M33-261c38 41 65 92 65 168S71 34 33 75H2C39 34 66-17 66-93S39-220 2-261h31" id="aV"/><g id="u"><use transform="matrix(0.05,0,0,0.05,0,0)" xlink:href="#aR"/><use transform="matrix(0.05,0,0,0.05,5.95,0)" xlink:href="#aS"/><use transform="matrix(0.05,0,0,0.05,14,0)" xlink:href="#aM"/><use transform="matrix(0.05,0,0,0.05,24,0)" xlink:href="#aT"/><use transform="matrix(0.05,0,0,0.05,33.9,0)" xlink:href="#aG"/><use transform="matrix(0.05,0,0,0.05,42.1,0)" xlink:href="#aD"/><use transform="matrix(0.05,0,0,0.05,52.1,0)" xlink:href="#aM"/><use transform="matrix(0.05,0,0,0.05,61.7,0)" xlink:href="#aU"/><use transform="matrix(0.05,0,0,0.05,72.2,0)" xlink:href="#aU"/><use transform="matrix(0.05,0,0,0.05,82.7,0)" xlink:href="#aO"/><use transform="matrix(0.05,0,0,0.05,92.7,0)" xlink:href="#aD"/><use transform="matrix(0.05,0,0,0.05,102.7,0)" xlink:href="#aV"/></g><path d="M197 0v-219H63V0H30v-248h201V0h-34" id="aW"/><path d="M147-167H93C83-118 77-63 59-23h88v-144zM24-23c26-44 31-102 41-167h113v167h26v95h-29V0H32v72H4v-95h20" id="aX"/><path d="M121-190v23H57V0H25v-190h96" id="aY"/><g id="v"><use transform="matrix(0.07407407407407408,0,0,0.07407407407407408,0,0)" xlink:href="#aW"/><use transform="matrix(0.07407407407407408,0,0,0.07407407407407408,19.111111111111114,0)" xlink:href="#aM"/><use transform="matrix(0.07407407407407408,0,0,0.07407407407407408,33.33333333333334,0)" xlink:href="#aX"/><use transform="matrix(0.07407407407407408,0,0,0.07407407407407408,48.88888888888891,0)" xlink:href="#aY"/><use transform="matrix(0.07407407407407408,0,0,0.07407407407407408,58.5925925925926,0)" xlink:href="#aD"/><use transform="matrix(0.07407407407407408,0,0,0.07407407407407408,73.11111111111111,0)" xlink:href="#aF"/><use transform="matrix(0.07407407407407408,0,0,0.07407407407407408,86.44444444444446,0)" xlink:href="#aI"/><use transform="matrix(0.07407407407407408,0,0,0.07407407407407408,98.66666666666669,0)" xlink:href="#aS"/><use transform="matrix(0.07407407407407408,0,0,0.07407407407407408,110.88888888888891,0)" xlink:href="#aC"/></g><path d="M170-56C169 10 92 0 25 0v-190h32v80c58-2 114-1 113 54zm-34 0c0-38-42-32-79-32v66c38 0 79 5 79-34zm66 56v-190h32V0h-32" id="aZ"/><path d="M141 0L90-78 38 0H4l68-98-65-92h35l48 74 47-74h35l-64 92 68 98h-35" id="ba"/><g id="w"><use transform="matrix(0.07407407407407408,0,0,0.07407407407407408,0,0)" xlink:href="#aX"/><use transform="matrix(0.07407407407407408,0,0,0.07407407407407408,15.555555555555557,0)" xlink:href="#aC"/><use transform="matrix(0.07407407407407408,0,0,0.07407407407407408,30.370370370370374,0)" xlink:href="#aT"/><use transform="matrix(0.07407407407407408,0,0,0.07407407407407408,45.03703703703704,0)" xlink:href="#aT"/><use transform="matrix(0.07407407407407408,0,0,0.07407407407407408,59.70370370370371,0)" xlink:href="#aZ"/><use transform="matrix(0.07407407407407408,0,0,0.07407407407407408,78.81481481481482,0)" xlink:href="#ba"/></g><use transform="matrix(0.07407407407407408,0,0,0.07407407407407408,0,0)" xlink:href="#aQ" id="x"/><g id="y"><use transform="matrix(0.07407407407407408,0,0,0.07407407407407408,0,0)" xlink:href="#aQ"/><use transform="matrix(0.07407407407407408,0,0,0.07407407407407408,13.333333333333336,0)" xlink:href="#aO"/><use transform="matrix(0.07407407407407408,0,0,0.07407407407407408,28.148148148148152,0)" xlink:href="#aD"/><use transform="matrix(0.07407407407407408,0,0,0.07407407407407408,42.96296296296297,0)" xlink:href="#aN"/><use transform="matrix(0.07407407407407408,0,0,0.07407407407407408,56.814814814814824,0)" xlink:href="#aO"/><use transform="matrix(0.07407407407407408,0,0,0.07407407407407408,71.62962962962965,0)" xlink:href="#aD"/><use transform="matrix(0.07407407407407408,0,0,0.07407407407407408,86.44444444444446,0)" xlink:href="#aC"/></g><filter id="z" filterUnits="objectBoundingBox" x="-.05" y="-.04" width="1.11" height="1.11"><feOffset result="offOut" in="SourceAlpha" dy="2"/><feGaussianBlur result="blurOut" in="offOut" stdDeviation="3.5"/><feColorMatrix result="colorOut" in="blurOut" values="0 0 0 0 0 0 0 0 0 0 0 0 0 0 0 0 0 0 0.5019607843137255 0"/><feBlend in="SourceGraphic" in2="colorOut"/></filter><path d="M233-177c-1 41-23 64-60 70L243 0h-38l-65-103H63V0H30v-248c88 3 205-21 203 71zM63-129c60-2 137 13 137-47 0-61-80-42-137-45v92" id="bb"/><path d="M30 0v-248h187v28H63v79h144v27H63v87h162V0H30" id="bc"/><g id="A"><use transform="matrix(0.07407407407407408,0,0,0.07407407407407408,0,0)" xlink:href="#bb"/><use transform="matrix(0.07407407407407408,0,0,0.07407407407407408,19.185185185185187,0)" xlink:href="#bc"/><use transform="matrix(0.07407407407407408,0,0,0.07407407407407408,36.96296296296296,0)" xlink:href="#ao"/><use transform="matrix(0.07407407407407408,0,0,0.07407407407407408,54.74074074074074,0)" xlink:href="#aj"/></g><path d="M205 0l-28-72H64L36 0H1l101-248h38L239 0h-34zm-38-99l-47-123c-12 45-31 82-46 123h93" id="bd"/><path d="M30-248c87 1 191-15 191 75 0 78-77 80-158 76V0H30v-248zm33 125c57 0 124 11 124-50 0-59-68-47-124-48v98" id="be"/><path d="M33 0v-248h34V0H33" id="bf"/><g id="B"><use transform="matrix(0.07407407407407408,0,0,0.07407407407407408,0,0)" xlink:href="#bd"/><use transform="matrix(0.07407407407407408,0,0,0.07407407407407408,17.77777777777778,0)" xlink:href="#be"/><use transform="matrix(0.07407407407407408,0,0,0.07407407407407408,35.55555555555556,0)" xlink:href="#bf"/></g><path d="M232-93c-1 65-40 97-104 97C67 4 28-28 28-90v-158h33c8 89-33 224 67 224 102 0 64-133 71-224h33v155" id="bg"/><g id="C"><use transform="matrix(0.07407407407407408,0,0,0.07407407407407408,0,0)" xlink:href="#bg"/><use transform="matrix(0.07407407407407408,0,0,0.07407407407407408,19.185185185185187,0)" xlink:href="#bf"/></g><path d="M68-38c1 34 0 65-14 84H32c9-13 17-26 17-46H33v-38h35" id="bh"/><g id="E"><use transform="matrix(0.07407407407407408,0,0,0.07407407407407408,0,0)" xlink:href="#ai"/><use transform="matrix(0.07407407407407408,0,0,0.07407407407407408,19.185185185185187,0)" xlink:href="#aj"/><use transform="matrix(0.07407407407407408,0,0,0.07407407407407408,35.40740740740741,0)" xlink:href="#ak"/><use transform="matrix(0.07407407407407408,0,0,0.07407407407407408,57.555555555555564,0)" xlink:href="#al"/><use transform="matrix(0.07407407407407408,0,0,0.07407407407407408,72.37037037037038,0)" xlink:href="#bh"/></g><path fill="#5a6c86" d="M63-220v92h138v28H63V0H30v-248h175v28H63" id="bi"/><path fill="#5a6c86" d="M233-177c-1 41-23 64-60 70L243 0h-38l-65-103H63V0H30v-248c88 3 205-21 203 71zM63-129c60-2 137 13 137-47 0-61-80-42-137-45v92" id="bj"/><path fill="#5a6c86" d="M140-251c81 0 123 46 123 126C263-46 219 4 140 4 59 4 17-45 17-125s42-126 123-126zm0 227c63 0 89-41 89-101s-29-99-89-99c-61 0-89 39-89 99S79-25 140-24" id="bk"/><path fill="#5a6c86" d="M190 0L58-211 59 0H30v-248h39L202-35l-2-213h31V0h-41" id="bl"/><path fill="#5a6c86" d="M127-220V0H93v-220H8v-28h204v28h-85" id="bm"/><path fill="#5a6c86" d="M30 0v-248h187v28H63v79h144v27H63v87h162V0H30" id="bn"/><path fill="#5a6c86" d="M30-248c118-7 216 8 213 122C240-48 200 0 122 0H30v-248zM63-27c89 8 146-16 146-99s-60-101-146-95v194" id="bo"/><g id="F"><use transform="matrix(0.09876543209876544,0,0,0.09876543209876544,0,0)" xlink:href="#bi"/><use transform="matrix(0.09876543209876544,0,0,0.09876543209876544,21.62962962962963,0)" xlink:href="#bj"/><use transform="matrix(0.09876543209876544,0,0,0.09876543209876544,47.20987654320988,0)" xlink:href="#bk"/><use transform="matrix(0.09876543209876544,0,0,0.09876543209876544,74.8641975308642,0)" xlink:href="#bl"/><use transform="matrix(0.09876543209876544,0,0,0.09876543209876544,100.44444444444446,0)" xlink:href="#bm"/><use transform="matrix(0.09876543209876544,0,0,0.09876543209876544,122.07407407407409,0)" xlink:href="#bn"/><use transform="matrix(0.09876543209876544,0,0,0.09876543209876544,145.7777777777778,0)" xlink:href="#bl"/><use transform="matrix(0.09876543209876544,0,0,0.09876543209876544,171.35802469135805,0)" xlink:href="#bo"/></g><path fill="#5a6c86" d="M160-131c35 5 61 23 61 61C221 17 115-2 30 0v-248c76 3 177-17 177 60 0 33-19 50-47 57zm-97-11c50-1 110 9 110-42 0-47-63-36-110-37v79zm0 115c55-2 124 14 124-45 0-56-70-42-124-44v89" id="bp"/><path fill="#5a6c86" d="M205 0l-28-72H64L36 0H1l101-248h38L239 0h-34zm-38-99l-47-123c-12 45-31 82-46 123h93" id="bq"/><path fill="#5a6c86" d="M212-179c-10-28-35-45-73-45-59 0-87 40-87 99 0 60 29 101 89 101 43 0 62-24 78-52l27 14C228-24 195 4 139 4 59 4 22-46 18-125c-6-104 99-153 187-111 19 9 31 26 39 46" id="br"/><path fill="#5a6c86" d="M194 0L95-120 63-95V0H30v-248h33v124l119-124h40L117-140 236 0h-42" id="bs"/><g id="G"><use transform="matrix(0.08641975308641976,0,0,0.08641975308641976,0,0)" xlink:href="#bp"/><use transform="matrix(0.08641975308641976,0,0,0.08641975308641976,20.740740740740744,0)" xlink:href="#bq"/><use transform="matrix(0.08641975308641976,0,0,0.08641975308641976,41.48148148148149,0)" xlink:href="#br"/><use transform="matrix(0.08641975308641976,0,0,0.08641975308641976,63.8641975308642,0)" xlink:href="#bs"/><use transform="matrix(0.08641975308641976,0,0,0.08641975308641976,84.60493827160495,0)" xlink:href="#bn"/><use transform="matrix(0.08641975308641976,0,0,0.08641975308641976,105.34567901234568,0)" xlink:href="#bl"/><use transform="matrix(0.08641975308641976,0,0,0.08641975308641976,127.72839506172843,0)" xlink:href="#bo"/></g><path d="M96-169c-40 0-48 33-48 73s9 75 48 75c24 0 41-14 43-38l32 2c-6 37-31 61-74 61-59 0-76-41-82-99-10-93 101-131 147-64 4 7 5 14 7 22l-32 3c-4-21-16-35-41-35" id="bt"/><path d="M106-169C34-169 62-67 57 0H25v-261h32l-1 103c12-21 28-36 61-36 89 0 53 116 60 194h-32v-121c2-32-8-49-39-48" id="bu"/><path d="M100-194c63 0 86 42 84 106H49c0 40 14 67 53 68 26 1 43-12 49-29l28 8c-11 28-37 45-77 45C44 4 14-33 15-96c1-61 26-98 85-98zm52 81c6-60-76-77-97-28-3 7-6 17-6 28h103" id="bv"/><path d="M85-194c31 0 48 13 60 33l-1-100h32l1 261h-30c-2-10 0-23-3-31C134-8 116 4 85 4 32 4 16-35 15-94c0-66 23-100 70-100zm9 24c-40 0-46 34-46 75 0 40 6 74 45 74 42 0 51-32 51-76 0-42-9-74-50-73" id="bw"/><path d="M84 4C-5 8 30-112 23-190h32v120c0 31 7 50 39 49 72-2 45-101 50-169h31l1 190h-30c-1-10 1-25-2-33-11 22-28 36-60 37" id="bx"/><path d="M24 0v-261h32V0H24" id="by"/><path d="M114-163C36-179 61-72 57 0H25l-1-190h30c1 12-1 29 2 39 6-27 23-49 58-41v29" id="bz"/><g id="H"><use transform="matrix(0.07407407407407408,0,0,0.07407407407407408,0,0)" xlink:href="#ao"/><use transform="matrix(0.07407407407407408,0,0,0.07407407407407408,17.77777777777778,0)" xlink:href="#bt"/><use transform="matrix(0.07407407407407408,0,0,0.07407407407407408,31.111111111111114,0)" xlink:href="#bu"/><use transform="matrix(0.07407407407407408,0,0,0.07407407407407408,45.92592592592593,0)" xlink:href="#bv"/><use transform="matrix(0.07407407407407408,0,0,0.07407407407407408,60.74074074074075,0)" xlink:href="#bw"/><use transform="matrix(0.07407407407407408,0,0,0.07407407407407408,75.55555555555557,0)" xlink:href="#bx"/><use transform="matrix(0.07407407407407408,0,0,0.07407407407407408,90.37037037037038,0)" xlink:href="#by"/><use transform="matrix(0.07407407407407408,0,0,0.07407407407407408,96.22222222222223,0)" xlink:href="#bv"/><use transform="matrix(0.07407407407407408,0,0,0.07407407407407408,111.03703703703704,0)" xlink:href="#bz"/></g><path d="M115-194c55 1 70 41 70 98S169 2 115 4C84 4 66-9 55-30l1 105H24l-1-265h31l2 30c10-21 28-34 59-34zm-8 174c40 0 45-34 45-75s-6-73-45-74c-42 0-51 32-51 76 0 43 10 73 51 73" id="bA"/><path d="M141-36C126-15 110 5 73 4 37 3 15-17 15-53c-1-64 63-63 125-63 3-35-9-54-41-54-24 1-41 7-42 31l-33-3c5-37 33-52 76-52 45 0 72 20 72 64v82c-1 20 7 32 28 27v20c-31 9-61-2-59-35zM48-53c0 20 12 33 32 33 41-3 63-29 60-74-43 2-92-5-92 41" id="bB"/><path d="M135-143c-3-34-86-38-87 0 15 53 115 12 119 90S17 21 10-45l28-5c4 36 97 45 98 0-10-56-113-15-118-90-4-57 82-63 122-42 12 7 21 19 24 35" id="bC"/><g id="I"><use transform="matrix(0.07407407407407408,0,0,0.07407407407407408,0,0)" xlink:href="#bA"/><use transform="matrix(0.07407407407407408,0,0,0.07407407407407408,14.814814814814817,0)" xlink:href="#bB"/><use transform="matrix(0.07407407407407408,0,0,0.07407407407407408,29.629629629629633,0)" xlink:href="#bz"/><use transform="matrix(0.07407407407407408,0,0,0.07407407407407408,38.44444444444445,0)" xlink:href="#bC"/><use transform="matrix(0.07407407407407408,0,0,0.07407407407407408,51.777777777777786,0)" xlink:href="#bv"/><use transform="matrix(0.07407407407407408,0,0,0.07407407407407408,66.59259259259261,0)" xlink:href="#bz"/></g></defs></g></svg>