<svg xmlns="http://www.w3.org/2000/svg" xmlns:xlink="http://www.w3.org/1999/xlink" xmlns:lucid="lucid" width="1870.4" height="1323.2"><g transform="translate(0 0)" lucid:page-tab-id="0_0"><path d="M179.75 99.75c0 10.9-8.84 19.75-19.75 19.75-10.9 0-19.75-8.84-19.75-19.75C140.25 88.85 149.1 80 160 80c10.9 0 19.75 8.84 19.75 19.75z" stroke="#000" stroke-width="2" fill="#fff"/><path d="M160 119.5v55.3l40 63.2m-40-63.2L120 238m0-98.75h80" stroke="#000" stroke-width="2" fill="none"/><path d="M120 80h80v180h-80z" fill="none"/><use xlink:href="#a" transform="matrix(1,0,0,1,40,238) translate(97.475 14.6)"/><path d="M179.75 554.75c0 10.9-8.84 19.75-19.75 19.75-10.9 0-19.75-8.84-19.75-19.75 0-10.9 8.84-19.75 19.75-19.75 10.9 0 19.75 8.84 19.75 19.75z" stroke="#000" stroke-width="2" fill="#fff"/><path d="M160 574.5v55.3l40 63.2m-40-63.2L120 693m0-98.75h80" stroke="#000" stroke-width="2" fill="none"/><path d="M120 535h80v180h-80z" fill="none"/><use xlink:href="#b" transform="matrix(1,0,0,1,40,693) translate(40.19999999999999 14.4)"/><use xlink:href="#c" transform="matrix(1,0,0,1,40,693) translate(63.300000000000004 36)"/><path d="M179.75 1039.75c0 10.9-8.84 19.75-19.75 19.75-10.9 0-19.75-8.84-19.75-19.75 0-10.9 8.84-19.75 19.75-19.75 10.9 0 19.75 8.84 19.75 19.75z" stroke="#000" stroke-width="2" fill="#fff"/><path d="M160 1059.5v55.3l40 63.2m-40-63.2l-40 63.2m0-98.75h80" stroke="#000" stroke-width="2" fill="none"/><path d="M120 1020h80v180h-80z" fill="none"/><use xlink:href="#d" transform="matrix(1,0,0,1,40,1178) translate(55.175 14.6)"/><path d="M369.96 40H1460v1160H369.96z" stroke="#000" stroke-width="2" fill-opacity="0"/><use xlink:href="#e" transform="matrix(1,0,0,1,377.9584034412328,48) translate(388.225 15.6)"/><use xlink:href="#f" transform="matrix(1,0,0,1,377.9584034412328,48) translate(456.425 15.6)"/><use xlink:href="#g" transform="matrix(1,0,0,1,377.9584034412328,48) translate(577.975 15.6)"/><path d="M1045.2 435c0 41.42-49.25 75-110 75s-110-33.58-110-75 49.25-75 110-75 110 33.58 110 75z" stroke="#000" stroke-width="2" fill="#fff"/><use xlink:href="#h" transform="matrix(1,0,0,1,825.1999999999999,360) translate(56.254999999999995 80.025)"/><path d="M701.04 275c0 41.42-49.25 75-110 75s-110-33.58-110-75 49.25-75 110-75 110 33.58 110 75z" stroke="#000" stroke-width="2" fill="#fff"/><use xlink:href="#i" transform="matrix(1,0,0,1,481.04167668208083,200) translate(89.655 80.025)"/><path d="M701.04 540c0 44.18-49.25 80-110 80s-110-35.82-110-80 49.25-80 110-80 110 35.82 110 80z" stroke="#000" stroke-width="2" fill="#fff"/><use xlink:href="#j" transform="matrix(1,0,0,1,481.04167668208083,460) translate(38.48 74.4)"/><use xlink:href="#k" transform="matrix(1,0,0,1,481.04167668208083,460) translate(125.53 74.4)"/><use xlink:href="#l" transform="matrix(1,0,0,1,481.04167668208083,460) translate(18.804999999999986 96)"/><use xlink:href="#m" transform="matrix(1,0,0,1,481.04167668208083,460) translate(114.355 96)"/><path d="M701.04 760c0 44.18-49.25 80-110 80s-110-35.82-110-80 49.25-80 110-80 110 35.82 110 80z" stroke="#000" stroke-width="2" fill="#fff"/><use xlink:href="#n" transform="matrix(1,0,0,1,481.04167668208083,680) translate(49.48 74.4)"/><use xlink:href="#o" transform="matrix(1,0,0,1,481.04167668208083,680) translate(19.729999999999997 96)"/><use xlink:href="#p" transform="matrix(1,0,0,1,481.04167668208083,680) translate(113.43 96)"/><path d="M701.04 980c0 44.18-49.25 80-110 80s-110-35.82-110-80 49.25-80 110-80 110 35.82 110 80z" stroke="#000" stroke-width="2" fill="#fff"/><use xlink:href="#q" transform="matrix(1,0,0,1,481.04167668208083,900) translate(15.654999999999996 74.4)"/><use xlink:href="#r" transform="matrix(1,0,0,1,481.04167668208083,900) translate(85.105 74.4)"/><use xlink:href="#o" transform="matrix(1,0,0,1,481.04167668208083,900) translate(19.729999999999997 96)"/><use xlink:href="#p" transform="matrix(1,0,0,1,481.04167668208083,900) translate(113.43 96)"/><path d="M1260 1100c0 44.18-49.25 80-110 80s-110-35.82-110-80 49.25-80 110-80 110 35.82 110 80z" stroke="#000" stroke-width="2" fill="#fff"/><use xlink:href="#s" transform="matrix(1,0,0,1,1040,1020) translate(43.155 64.4)"/><use xlink:href="#k" transform="matrix(1,0,0,1,1040,1020) translate(120.855 64.4)"/><use xlink:href="#l" transform="matrix(1,0,0,1,1040,1020) translate(11.529999999999982 86)"/><use xlink:href="#t" transform="matrix(1,0,0,1,1040,1020) translate(107.08 86)"/><use xlink:href="#u" transform="matrix(1,0,0,1,1040,1020) translate(198.93 86)"/><use xlink:href="#v" transform="matrix(1,0,0,1,1040,1020) translate(98.03 107.6)"/><path d="M200.9 140.68l278.24 133.9" stroke="#000" stroke-width="2" fill="none"/><path d="M201.36 139.8l-.87 1.8-2.8-1.35h2.3v-1.1zm-3.73-1.55l.1-.2.42.2zM480.07 273.9l-.03 1.1.02 1.12-1.38-.66.87-1.8z"/><path d="M1220 655c0 44.18-49.25 80-110 80s-110-35.82-110-80 49.25-80 110-80 110 35.82 110 80z" stroke="#000" stroke-width="2" fill="#fff"/><use xlink:href="#w" transform="matrix(1,0,0,1,1000,575) translate(31.355 64.4)"/><use xlink:href="#x" transform="matrix(1,0,0,1,1000,575) translate(36.355000000000004 64.4)"/><use xlink:href="#k" transform="matrix(1,0,0,1,1000,575) translate(132.655 64.4)"/><use xlink:href="#l" transform="matrix(1,0,0,1,1000,575) translate(18.804999999999986 86)"/><use xlink:href="#y" transform="matrix(1,0,0,1,1000,575) translate(114.355 86)"/><use xlink:href="#z" transform="matrix(1,0,0,1,1000,575) translate(86.38000000000001 107.6)"/><use xlink:href="#v" transform="matrix(1,0,0,1,1000,575) translate(109.68 107.6)"/><path d="M997.67 653.4l-.73 1.88-8.92-3.46.73-1.86zm-17.84-6.9l-.72 1.87-17.83-6.9.72-1.88zm-26.76-10.36l-.72 1.87-17.84-6.9.73-1.87zm-26.76-10.36l-.7 1.86-17.85-6.9.72-1.87zm-26.74-10.36l-.73 1.86-17.83-6.9.72-1.87zm-80.28-31.1l-.72 1.88-17.84-6.9.73-1.88zm-26.75-10.35l-.73 1.86-17.83-6.9.72-1.87zm-26.76-10.36l-.72 1.87-17.84-6.9.73-1.87zM739 553.25l-.7 1.87-17.85-6.9.72-1.86zm-26.75-10.36l-.72 1.87-8.92-3.46.74-1.87z"/><path d="M703.36 539.44l-.72 1.86-.62-.24.02-1.05v-1.08zM999 655l-21.4 3.55-.33-1.97 18.07-3L984 639.2l1.58-1.24z"/><use xlink:href="#A" transform="matrix(1,0,0,1,790.4458383410404,586.7) translate(0 14.4)"/><path d="M1220 880c0 44.18-49.25 80-110 80s-110-35.82-110-80 49.25-80 110-80 110 35.82 110 80z" stroke="#000" stroke-width="2" fill="#fff"/><use xlink:href="#B" transform="matrix(1,0,0,1,1000,800) translate(27.604999999999997 74.4)"/><use xlink:href="#k" transform="matrix(1,0,0,1,1000,800) translate(136.40500000000003 74.4)"/><use xlink:href="#l" transform="matrix(1,0,0,1,1000,800) translate(18.804999999999986 96)"/><use xlink:href="#m" transform="matrix(1,0,0,1,1000,800) translate(114.355 96)"/><path d="M1003.75 851.76l-.58 1.9-10.02-3.07.6-1.92zm-20.03-6.16l-.58 1.9-20.04-6.15.6-1.9zm-30.04-9.24l-.6 1.9-20.02-6.15.6-1.9zm-30.05-9.24l-.6 1.9-20.02-6.15.6-1.92zm-30.05-9.25l-.58 1.92-7.67-2.37h6.8zm-71.67-22.04h-6.8l-2.23-.7.6-1.9zm-18.45-5.68l-.6 1.9-20.02-6.15.6-1.92zm-30.05-9.25l-.6 1.92-20.02-6.17.6-1.9zm-30.05-9.24l-.58 1.9-20.04-6.15.6-1.9zm-30.04-9.24l-.58 1.9-10.02-3.07.6-1.9zM703.32 759.35l-.6 1.9-.7-.2.02-1.04v-1.05z"/><path d="M1005.2 853.25l-21.1 5.07-.46-1.95 17.8-4.27-12.32-13.54 1.48-1.35z"/><use xlink:href="#A" transform="matrix(1,0,0,1,793.5450617704819,795.8267091575054) translate(0 14.4)"/><path d="M713.4 978.65l-10.18 2.13-.4-1.96L713 976.7zm30.57-6.36l-20.37 4.23-.4-1.96 20.36-4.24zm30.56-6.38l-20.37 4.25-.4-1.96 20.36-4.24zm30.56-6.36l-20.38 4.24-.4-1.96 15.15-3.16h5.44zm122.23-25.47l-14.36 2.98h-6.28l-.16-.7 20.38-4.25zm30.55-6.37l-20.37 4.24-.4-1.96 20.38-4.23zm30.56-6.37l-20.37 4.25-.4-1.95 20.37-4.25zm20.38-4.24l-10.2 2.12-.4-1.96 10.2-2.12z"/><path d="M703.25 980.77l-1.23.26.02-1.02V979l.8-.17zM1010.4 915.77l-16.03 14.6-1.35-1.46 13.53-12.33-17.33-5.9.64-1.9z"/><use xlink:href="#A" transform="matrix(1,0,0,1,796.1420190854913,937.0838186933524) translate(0 14.4)"/><path d="M200.88 1080.27l837.47 13.38M200.9 1080.27l-4.02-.07" stroke="#000" stroke-width="2" fill="none"/><path d="M1039.46 1092.66l-.2 1.88-.02.12h-.93l.04-2zM842.87 390.97l-.84 1.82-8.78-4.1.85-1.8zm-17.55-8.15l-.84 1.8-17.54-8.15.84-1.8zm-26.3-12.24l-.86 1.8-14.18-6.58h4.74zm-56.76-26.38h-4.74l-9.54-4.44.84-1.8zm-22.2-10.33l-.86 1.82-17.54-8.17.84-1.8zm-26.33-12.23l-.84 1.8-8.8-4.07.86-1.8z"/><path d="M844.12 391.55l-1.3 1.28-.2.23-.62-.28.85-1.82zM704.67 317.55l-18.22 1.8 10.36 15.1-1.64 1.13-12.27-17.88 21.57-2.14z"/><use xlink:href="#C" transform="matrix(1,0,0,1,696.8458383410403,344.2) translate(0 14.4)"/><path d="M1304.98 275c0 41.42-49.25 75-110 75s-110-33.58-110-75 49.25-75 110-75 110 33.58 110 75z" stroke="#000" stroke-width="2" fill="#fff"/><use xlink:href="#D" transform="matrix(1,0,0,1,1084.9792017206164,200) translate(21.904999999999994 65.9625)"/><use xlink:href="#E" transform="matrix(1,0,0,1,1084.9792017206164,200) translate(107.405 65.9625)"/><use xlink:href="#F" transform="matrix(1,0,0,1,1084.9792017206164,200) translate(78.90500000000002 87.5625)"/><path d="M1440 435c0 41.42-49.25 75-110 75s-110-33.58-110-75 49.25-75 110-75 110 33.58 110 75z" stroke="#000" stroke-width="2" fill="#fff"/><use xlink:href="#G" transform="matrix(1,0,0,1,1220,360) translate(49.005 65.9625)"/><use xlink:href="#H" transform="matrix(1,0,0,1,1220,360) translate(108.355 65.9625)"/><use xlink:href="#I" transform="matrix(1,0,0,1,1220,360) translate(57.08 87.5625)"/><path d="M1078.37 436h-11.46v-2h11.47zm-20.9 0H1048v-2h9.44zm160.53 0h-7.08v-2h7.08z"/><path d="M1219 435v1h-1.03v-2h1.05zM1065.9 425.68l-15.77 9.32 15.76 9.32-1.03 1.72L1046.2 435l18.67-11.04z"/><use xlink:href="#C" transform="matrix(1,0,0,1,1078.370915782751,424.2) translate(0 14.4)"/><path d="M1060.52 155c0 41.42-49.25 75-110 75s-110-33.58-110-75 49.25-75 110-75 110 33.58 110 75z" stroke="#000" stroke-width="2" fill="#fff"/><use xlink:href="#G" transform="matrix(1,0,0,1,840.5208383410404,80) translate(22.28000000000001 80.025)"/><use xlink:href="#J" transform="matrix(1,0,0,1,840.5208383410404,80) translate(81.63000000000001 80.025)"/><use xlink:href="#K" transform="matrix(1,0,0,1,840.5208383410404,80) translate(149.28 80.025)"/><path d="M700.7 236.45l-8.13 4.7-1-1.72 8.14-4.7zm24.44-14.13l-16.3 9.42-1-1.73 16.3-9.4zm24.43-14.14l-16.28 9.43-1.02-1.73 16.3-9.42zm8.15-4.7l-.34-.6h1.34zm40.72-23.56l-2.38 1.37h-4l5.37-3.1zm24.43-14.13l-16.3 9.4-1-1.72 16.3-9.42zm16.3-9.43l-8.16 4.7-1-1.72 8.15-4.7z"/><path d="M839.52 155l.02 1.15-.4.23-1-1.73 1.4-.82zM702.87 223.28l-8.98 15.96 18.3.17-.02 2-21.7-.2 10.64-18.9z"/><g><use xlink:href="#C" transform="matrix(1,0,0,1,709.1197862954374,181.2927924805145) translate(0 14.4)"/></g><path d="M712.76 276h-9.72v-2h9.72zm29.17 0h-19.45v-2h19.45zm29.16 0h-19.45v-2h19.44zm29.15 0H780.8v-2h19.45zm29.16 0h-19.43v-2h19.44zm145.83 0H955.8v-2h19.43zm29.16 0h-19.45v-2h19.44zm29.16 0h-19.45v-2h19.46zm29.16 0h-19.44v-2h19.44zm19.44 0h-9.72v-2h9.72z"/><path d="M703.07 276h-1.05l.02-1v-1h1.03zM1083.98 275l-18.67 11.04-1-1.72 15.75-9.32-15.76-9.32 1-1.72z"/><g><use xlink:href="#A" transform="matrix(1,0,0,1,832.9354392013486,264.2) translate(0 14.4)"/></g><path d="M201 593.18l287.34-20.62" stroke="#000" stroke-width="2" fill="none"/><path d="M201.1 594.17l-1.1.08v-1h-3l-.06-.78 4-.3zM488.77 571.55l1.16 1.9-1.54.1-.16-2 .5-.03z"/><path d="M488.3 507.45l-287.68-366.4" stroke="#000" stroke-width="2" fill="none"/><path d="M489.45 507.3l-1.07 1.87-.9-1.13 1.6-1.23zM201.42 140.44l-1.57 1.23-1.12-1.42H200v-1.62zm-3.73-2.2l1.23-.97.77.98z"/><path d="M200.86 593.76l278.36 163.98" stroke="#000" stroke-width="2" fill="none"/><path d="M201.4 592.9l-1.02 1.73-.38-.22v-1.15h-1.97l-1.12-.66 1.02-1.73zM480.1 757.1v.16l-.04 2.14-1.37-.8 1-1.73z"/><path d="M479.45 979.2L196.6 596.05" stroke="#000" stroke-width="2" fill="none"/><path d="M480.04 980l.02 1.53v.2l-1.43-1.96 1.44-1.07z"/><path d="M196.6 596.08l-2.38-3.24M200.42 1079.4L510.8 597.2M200.43 1079.4l-2.18 3.37" stroke="#000" stroke-width="2" fill="none"/><path d="M512.05 596.92l.08.06-.5.8-1.7-1.1.6-.92z"/><path d="M200.6 1079.57L496.96 804.5M200.63 1079.55l-2.95 2.74" stroke="#000" stroke-width="2" fill="none"/><path d="M498.35 804.56l-.74.7-1.35-1.48.76-.7z"/><path d="M200.84 1080l284.48-72.92M200.87 1080l-3.9 1" stroke="#000" stroke-width="2" fill="none"/><path d="M485.88 1006l.86 1.75-1.2.3-.5-1.93.8-.2z"/><path d="M200.84 1080l212.52-54.48M200.87 1080l-3.9 1M413.33 1025.53l1-.25" stroke="#000" stroke-width="2" fill="none"/><defs><path d="M188-248v28H63V0H30v-248h158" id="L"/><path d="M100-194c62-1 85 37 85 99 1 63-27 99-86 99S16-35 15-95c0-66 28-99 85-99zM99-20c44 1 53-31 53-75 0-43-8-75-51-75s-53 32-53 75 10 74 51 75" id="M"/><path d="M96-169c-40 0-48 33-48 73s9 75 48 75c24 0 41-14 43-38l32 2c-6 37-31 61-74 61-59 0-76-41-82-99-10-93 101-131 147-64 4 7 5 14 7 22l-32 3c-4-21-16-35-41-35" id="N"/><path d="M6-190h153v23H98V0H67v-167H6v-23" id="O"/><path d="M173-56C173 11 92 0 25 0v-190h32v80c58-2 117-2 116 54zm-34 0c0-39-44-31-82-32v66c39 0 82 6 82-34" id="P"/><g id="a"><use transform="matrix(0.05,0,0,0.05,0,0)" xlink:href="#L"/><use transform="matrix(0.05,0,0,0.05,8.5,0)" xlink:href="#M"/><use transform="matrix(0.05,0,0,0.05,18.5,0)" xlink:href="#N"/><use transform="matrix(0.05,0,0,0.05,27.5,0)" xlink:href="#O"/><use transform="matrix(0.05,0,0,0.05,35.7,0)" xlink:href="#P"/></g><path d="M205 0l-28-72H64L36 0H1l101-248h38L239 0h-34zm-38-99l-47-123c-12 45-31 82-46 123h93" id="Q"/><path d="M176-55C176 11 93 0 25 0v-190c61 3 142-15 144 47 1 29-21 35-39 44 27 3 46 16 46 44zm-34 0c0-41-47-30-85-32v64c38-1 85 8 85-32zm-6-83c0-36-44-26-79-28v56c34-2 79 8 79-28" id="R"/><path d="M115-194c55 1 70 41 70 98S169 2 115 4C84 4 66-9 55-30l1 105H24l-1-265h31l2 30c10-21 28-34 59-34zm-8 174c40 0 45-34 45-75s-6-73-45-74c-42 0-51 32-51 76 0 43 10 73 51 73" id="S"/><path d="M56-190L54-37l88-153h34V0h-30l2-153L59 0H25v-190h31" id="T"/><path d="M152-53C154 19 21 22 9-41l28-8c5 36 84 42 81-4-1-29-28-34-58-35v-24c28 0 55-4 55-30 0-19-14-29-34-28-20 0-35 7-38 25l-28-3c4-33 30-46 66-46 37 0 66 15 66 50 0 27-20 41-44 44 27 5 48 17 49 47" id="U"/><path d="M141-36C126-15 110 5 73 4 37 3 15-17 15-53c-1-64 63-63 125-63 3-35-9-54-41-54-24 1-41 7-42 31l-33-3c5-37 33-52 76-52 45 0 72 20 72 64v82c-1 20 7 32 28 27v20c-31 9-61-2-59-35zM48-53c0 20 12 33 32 33 41-3 63-29 60-74-43 2-92-5-92 41" id="V"/><path d="M57-190v80h85v-80h32V0h-32v-87H57V0H25v-190h32" id="W"/><path d="M170-56C169 10 92 0 25 0v-190h32v80c58-2 114-1 113 54zm-34 0c0-38-42-32-79-32v66c38 0 79 5 79-34zm66 56v-190h32V0h-32" id="X"/><path d="M165-267c8 67-110 75-125 20-2-7-4-13-4-20h29c1 23 13 35 36 35s34-13 36-35h28zM56-190L54-37l88-153h34V0h-30l2-153L59 0H25v-190h31" id="Y"/><g id="b"><use transform="matrix(0.05,0,0,0.05,0,0)" xlink:href="#Q"/><use transform="matrix(0.05,0,0,0.05,12,0)" xlink:href="#R"/><use transform="matrix(0.05,0,0,0.05,21.15,0)" xlink:href="#O"/><use transform="matrix(0.05,0,0,0.05,29.149999999999995,0)" xlink:href="#M"/><use transform="matrix(0.05,0,0,0.05,39.15,0)" xlink:href="#S"/><use transform="matrix(0.05,0,0,0.05,49.15,0)" xlink:href="#T"/><use transform="matrix(0.05,0,0,0.05,59.2,0)" xlink:href="#U"/><use transform="matrix(0.05,0,0,0.05,67.45,0)" xlink:href="#T"/><use transform="matrix(0.05,0,0,0.05,77.5,0)" xlink:href="#S"/><use transform="matrix(0.05,0,0,0.05,87.5,0)" xlink:href="#M"/><use transform="matrix(0.05,0,0,0.05,97.5,0)" xlink:href="#R"/><use transform="matrix(0.05,0,0,0.05,106.84999999999998,0)" xlink:href="#V"/><use transform="matrix(0.05,0,0,0.05,116.84999999999998,0)" xlink:href="#W"/><use transform="matrix(0.05,0,0,0.05,126.75,0)" xlink:href="#W"/><use transform="matrix(0.05,0,0,0.05,136.65,0)" xlink:href="#X"/><use transform="matrix(0.05,0,0,0.05,149.55,0)" xlink:href="#Y"/></g><path d="M170-190V0h-32v-167H57V0H25v-190h145" id="Z"/><path d="M153 0v-167H87C74-108 81-27 38 0 29 5 12 6 2 1v-22c51 4 39-64 49-112 5-25 4-25 8-57h126V0h-32" id="aa"/><path d="M100-194c63 0 86 42 84 106H49c0 40 14 67 53 68 26 1 43-12 49-29l28 8c-11 28-37 45-77 45C44 4 14-33 15-96c1-61 26-98 85-98zm52 81c6-60-76-77-97-28-3 7-6 17-6 28h103" id="ab"/><g id="c"><use transform="matrix(0.05,0,0,0.05,0,0)" xlink:href="#Z"/><use transform="matrix(0.05,0,0,0.05,9.700000000000001,0)" xlink:href="#M"/><use transform="matrix(0.05,0,0,0.05,19.3,0)" xlink:href="#aa"/><use transform="matrix(0.05,0,0,0.05,29.8,0)" xlink:href="#P"/><use transform="matrix(0.05,0,0,0.05,39.15,0)" xlink:href="#U"/><use transform="matrix(0.05,0,0,0.05,47.199999999999996,0)" xlink:href="#M"/><use transform="matrix(0.05,0,0,0.05,57.19999999999999,0)" xlink:href="#R"/><use transform="matrix(0.05,0,0,0.05,66.55,0)" xlink:href="#V"/><use transform="matrix(0.05,0,0,0.05,76.14999999999999,0)" xlink:href="#O"/><use transform="matrix(0.05,0,0,0.05,84.14999999999999,0)" xlink:href="#ab"/><use transform="matrix(0.05,0,0,0.05,93.55,0)" xlink:href="#aa"/><use transform="matrix(0.05,0,0,0.05,104.05000000000001,0)" xlink:href="#P"/></g><path d="M147-167H93C83-118 77-63 59-23h88v-144zM24-23c26-44 31-102 41-167h113v167h26v95h-29V0H32v72H4v-95h20" id="ac"/><path d="M138 0h-27L54-167c3 53 2 111 2 167H25v-190h49c16 56 39 106 51 166 11-61 34-110 50-166h48V0h-31l2-168" id="ad"/><g id="d"><use transform="matrix(0.05,0,0,0.05,0,0)" xlink:href="#Q"/><use transform="matrix(0.05,0,0,0.05,12,0)" xlink:href="#ac"/><use transform="matrix(0.05,0,0,0.05,22.5,0)" xlink:href="#ad"/><use transform="matrix(0.05,0,0,0.05,34.85,0)" xlink:href="#T"/><use transform="matrix(0.05,0,0,0.05,44.900000000000006,0)" xlink:href="#W"/><use transform="matrix(0.05,0,0,0.05,54.800000000000004,0)" xlink:href="#T"/><use transform="matrix(0.05,0,0,0.05,64.85000000000001,0)" xlink:href="#N"/><use transform="matrix(0.05,0,0,0.05,73.85000000000001,0)" xlink:href="#O"/><use transform="matrix(0.05,0,0,0.05,82.05000000000001,0)" xlink:href="#S"/><use transform="matrix(0.05,0,0,0.05,92.05000000000001,0)" xlink:href="#V"/><use transform="matrix(0.05,0,0,0.05,101.65,0)" xlink:href="#O"/><use transform="matrix(0.05,0,0,0.05,109.65,0)" xlink:href="#M"/><use transform="matrix(0.05,0,0,0.05,119.65,0)" xlink:href="#S"/></g><path d="M197 0v-219H63V0H30v-248h201V0h-34" id="ae"/><path d="M140-251c81 0 123 46 123 126C263-46 219 4 140 4 59 4 17-45 17-125s42-126 123-126zm0 227c63 0 89-41 89-101s-29-99-89-99c-61 0-89 39-89 99S79-25 140-24" id="af"/><path d="M30 0v-248h30L58-37l132-211h39V0h-30l1-209L70 0H30" id="ag"/><path d="M212-179c-10-28-35-45-73-45-59 0-87 40-87 99 0 60 29 101 89 101 43 0 62-24 78-52l27 14C228-24 195 4 139 4 59 4 22-46 18-125c-6-104 99-153 187-111 19 9 31 26 39 46" id="ah"/><path d="M94-120c-9 3-20 7-31 7V0H30v-248h33v109c41-1 47-27 65-55l36-54h35c-23 32-58 90-81 112L208 0h-39" id="ai"/><g id="e"><use transform="matrix(0.05,0,0,0.05,0,0)" xlink:href="#ae"/><use transform="matrix(0.05,0,0,0.05,12.9,0)" xlink:href="#af"/><use transform="matrix(0.05,0,0,0.05,26.899999999999995,0)" xlink:href="#ag"/><use transform="matrix(0.05,0,0,0.05,39.8,0)" xlink:href="#ah"/><use transform="matrix(0.05,0,0,0.05,52.75,0)" xlink:href="#ai"/></g><path d="M160-131c35 5 61 23 61 61C221 17 115-2 30 0v-248c76 3 177-17 177 60 0 33-19 50-47 57zm-97-11c50-1 110 9 110-42 0-47-63-36-110-37v79zm0 115c55-2 124 14 124-45 0-56-70-42-124-44v89" id="aj"/><path d="M63-143c77-2 155-4 155 70C218 13 117 1 30 0v-248h162v28H63v77zm0 116c54-1 121 11 121-45 0-53-67-44-121-44v89" id="ak"/><path d="M206-28h31V72h-32V0H34v72H3V-28h25c38-50 38-143 51-220h127v220zm-32 0v-192h-66C95-156 94-78 66-28h108" id="al"/><path d="M197 0v-115H63V0H30v-248h33v105h134v-105h34V0h-34" id="am"/><path d="M63-143c77-2 155-4 155 70C218 13 117 1 30 0v-248h33v105zm0 116c54-1 121 11 121-45 0-53-67-44-121-44v89zM256 0v-248h33V0h-33" id="an"/><path d="M195 0l-74-108L45 0H8l94-129-87-119h37l69 98 67-98h37l-84 118L233 0h-38" id="ao"/><g id="f"><use transform="matrix(0.05,0,0,0.05,0,0)" xlink:href="#ah"/><use transform="matrix(0.05,0,0,0.05,12.950000000000001,0)" xlink:href="#aj"/><use transform="matrix(0.05,0,0,0.05,24.35,0)" xlink:href="#af"/><use transform="matrix(0.05,0,0,0.05,38.35,0)" xlink:href="#ak"/><use transform="matrix(0.05,0,0,0.05,49.95,0)" xlink:href="#af"/><use transform="matrix(0.05,0,0,0.05,63.550000000000004,0)" xlink:href="#al"/><use transform="matrix(0.05,0,0,0.05,75.7,0)" xlink:href="#am"/><use transform="matrix(0.05,0,0,0.05,88.65,0)" xlink:href="#an"/><use transform="matrix(0.05,0,0,0.05,104.55000000000001,0)" xlink:href="#ao"/></g><path d="M30-34c39 28 70-14 80-46L10-248h38l79 138 67-138h36L114-29C100 3 49 14 16-9" id="ap"/><path d="M127-220V0H93v-220H8v-28h204v28h-85" id="aq"/><path d="M30-248c87 1 191-15 191 75 0 78-77 80-158 76V0H30v-248zm33 125c57 0 124 11 124-50 0-59-68-47-124-48v98" id="ar"/><path d="M195-325c8 67-111 74-126 20-2-7-3-13-3-20h29c2 22 12 35 35 35s35-12 36-35h29zM30 0v-248h30L58-37l132-211h39V0h-30l1-209L70 0H30" id="as"/><g id="g"><use transform="matrix(0.05,0,0,0.05,0,0)" xlink:href="#Q"/><use transform="matrix(0.05,0,0,0.05,11.2,0)" xlink:href="#ap"/><use transform="matrix(0.05,0,0,0.05,21.799999999999997,0)" xlink:href="#al"/><use transform="matrix(0.05,0,0,0.05,33.949999999999996,0)" xlink:href="#ag"/><use transform="matrix(0.05,0,0,0.05,46.849999999999994,0)" xlink:href="#aq"/><use transform="matrix(0.05,0,0,0.05,57,0)" xlink:href="#af"/><use transform="matrix(0.05,0,0,0.05,71,0)" xlink:href="#ar"/><use transform="matrix(0.05,0,0,0.05,83,0)" xlink:href="#ag"/><use transform="matrix(0.05,0,0,0.05,95.9,0)" xlink:href="#as"/></g><path d="M57-190v167h83v-167h32v167h26v95h-29V0H25v-190h32" id="at"/><path d="M20-138c-1-64 85-51 150-52V0h-32v-81H94L39 0H3l60-83c-28-5-43-24-43-55zm33 3c0 40 46 33 85 33v-66c-39 0-85-6-85 33" id="au"/><g id="h"><use transform="matrix(0.05,0,0,0.05,0,0)" xlink:href="#Q"/><use transform="matrix(0.05,0,0,0.05,12,0)" xlink:href="#R"/><use transform="matrix(0.05,0,0,0.05,21.15,0)" xlink:href="#O"/><use transform="matrix(0.05,0,0,0.05,29.149999999999995,0)" xlink:href="#M"/><use transform="matrix(0.05,0,0,0.05,39.15,0)" xlink:href="#S"/><use transform="matrix(0.05,0,0,0.05,49.15,0)" xlink:href="#T"/><use transform="matrix(0.05,0,0,0.05,59.2,0)" xlink:href="#U"/><use transform="matrix(0.05,0,0,0.05,67.45,0)" xlink:href="#V"/><use transform="matrix(0.05,0,0,0.05,77.45,0)" xlink:href="#at"/><use transform="matrix(0.05,0,0,0.05,87.75,0)" xlink:href="#T"/><use transform="matrix(0.05,0,0,0.05,97.8,0)" xlink:href="#au"/></g><path d="M141 0L90-78 38 0H4l68-98-65-92h35l48 74 47-74h35l-64 92 68 98h-35" id="av"/><g id="i"><use transform="matrix(0.05,0,0,0.05,0,0)" xlink:href="#aj"/><use transform="matrix(0.05,0,0,0.05,11.8,0)" xlink:href="#av"/><use transform="matrix(0.05,0,0,0.05,20.6,0)" xlink:href="#M"/><use transform="matrix(0.05,0,0,0.05,30.200000000000003,0)" xlink:href="#ac"/></g><g id="j"><use transform="matrix(0.05,0,0,0.05,0,0)" xlink:href="#ae"/><use transform="matrix(0.05,0,0,0.05,12.9,0)" xlink:href="#S"/><use transform="matrix(0.05,0,0,0.05,22.9,0)" xlink:href="#M"/><use transform="matrix(0.05,0,0,0.05,32.9,0)" xlink:href="#N"/><use transform="matrix(0.05,0,0,0.05,41.9,0)" xlink:href="#ad"/><use transform="matrix(0.05,0,0,0.05,54.25,0)" xlink:href="#M"/><use transform="matrix(0.05,0,0,0.05,63.85,0)" xlink:href="#O"/><use transform="matrix(0.05,0,0,0.05,72.05,0)" xlink:href="#S"/></g><path d="M75-87c-4 1-14 3-19 3V0H24v-190h32v83c26-2 31-21 43-41l26-42h33l-61 86L159 0h-35" id="aw"/><g id="k"><use transform="matrix(0.05,0,0,0.05,0,0)" xlink:href="#N"/><use transform="matrix(0.05,0,0,0.05,9,0)" xlink:href="#Z"/><use transform="matrix(0.05,0,0,0.05,18.700000000000003,0)" xlink:href="#T"/><use transform="matrix(0.05,0,0,0.05,28.75,0)" xlink:href="#N"/><use transform="matrix(0.05,0,0,0.05,37.75,0)" xlink:href="#aw"/><use transform="matrix(0.05,0,0,0.05,46,0)" xlink:href="#V"/></g><path d="M105-20c41 1 53-27 53-68 0-40-9-69-50-69s-54 27-54 69c0 40 12 68 51 68zM47-134c10-28 31-47 68-47 56 0 76 33 76 92 1 60-28 90-86 93C-9 9 1-201 72-238c29-15 73-21 110-26v28c-67 12-144 10-135 102" id="ax"/><g id="l"><use transform="matrix(0.05,0,0,0.05,0,0)" xlink:href="#N"/><use transform="matrix(0.05,0,0,0.05,9,0)" xlink:href="#R"/><use transform="matrix(0.05,0,0,0.05,18.35,0)" xlink:href="#M"/><use transform="matrix(0.05,0,0,0.05,28.35,0)" xlink:href="#ax"/><use transform="matrix(0.05,0,0,0.05,38.650000000000006,0)" xlink:href="#M"/><use transform="matrix(0.05,0,0,0.05,48.25000000000001,0)" xlink:href="#ac"/><use transform="matrix(0.05,0,0,0.05,58.75,0)" xlink:href="#W"/><use transform="matrix(0.05,0,0,0.05,68.65,0)" xlink:href="#X"/><use transform="matrix(0.05,0,0,0.05,81.55000000000001,0)" xlink:href="#av"/></g><path d="M179-190L93 31C79 59 56 82 12 73V49c39 6 53-20 64-50L1-190h34L92-34l54-156h33" id="ay"/><g id="m"><use transform="matrix(0.05,0,0,0.05,0,0)" xlink:href="#V"/><use transform="matrix(0.05,0,0,0.05,9.8,0)" xlink:href="#ay"/><use transform="matrix(0.05,0,0,0.05,18.200000000000003,0)" xlink:href="#ac"/><use transform="matrix(0.05,0,0,0.05,28.700000000000003,0)" xlink:href="#T"/><use transform="matrix(0.05,0,0,0.05,38.75,0)" xlink:href="#O"/><use transform="matrix(0.05,0,0,0.05,46.75,0)" xlink:href="#M"/><use transform="matrix(0.05,0,0,0.05,56.75,0)" xlink:href="#S"/><use transform="matrix(0.05,0,0,0.05,66.75,0)" xlink:href="#T"/><use transform="matrix(0.05,0,0,0.05,76.8,0)" xlink:href="#Y"/></g><g id="n"><use transform="matrix(0.05,0,0,0.05,0,0)" xlink:href="#ak"/><use transform="matrix(0.05,0,0,0.05,11.8,0)" xlink:href="#S"/><use transform="matrix(0.05,0,0,0.05,21.8,0)" xlink:href="#M"/><use transform="matrix(0.05,0,0,0.05,31.8,0)" xlink:href="#W"/><use transform="matrix(0.05,0,0,0.05,41.7,0)" xlink:href="#T"/><use transform="matrix(0.05,0,0,0.05,51.75,0)" xlink:href="#S"/><use transform="matrix(0.05,0,0,0.05,61.75,0)" xlink:href="#M"/><use transform="matrix(0.05,0,0,0.05,71.75,0)" xlink:href="#R"/><use transform="matrix(0.05,0,0,0.05,81.1,0)" xlink:href="#V"/><use transform="matrix(0.05,0,0,0.05,91.1,0)" xlink:href="#W"/><use transform="matrix(0.05,0,0,0.05,101,0)" xlink:href="#T"/><use transform="matrix(0.05,0,0,0.05,111.05000000000001,0)" xlink:href="#ab"/></g><g id="o"><use transform="matrix(0.05,0,0,0.05,0,0)" xlink:href="#N"/><use transform="matrix(0.05,0,0,0.05,9,0)" xlink:href="#R"/><use transform="matrix(0.05,0,0,0.05,18.35,0)" xlink:href="#M"/><use transform="matrix(0.05,0,0,0.05,28.35,0)" xlink:href="#ax"/><use transform="matrix(0.05,0,0,0.05,38.650000000000006,0)" xlink:href="#M"/><use transform="matrix(0.05,0,0,0.05,48.25000000000001,0)" xlink:href="#ac"/><use transform="matrix(0.05,0,0,0.05,58.75,0)" xlink:href="#W"/><use transform="matrix(0.05,0,0,0.05,68.65,0)" xlink:href="#M"/><use transform="matrix(0.05,0,0,0.05,78.65,0)" xlink:href="#Y"/></g><g id="p"><use transform="matrix(0.05,0,0,0.05,0,0)" xlink:href="#V"/><use transform="matrix(0.05,0,0,0.05,9.8,0)" xlink:href="#ay"/><use transform="matrix(0.05,0,0,0.05,18.200000000000003,0)" xlink:href="#ac"/><use transform="matrix(0.05,0,0,0.05,28.700000000000003,0)" xlink:href="#T"/><use transform="matrix(0.05,0,0,0.05,38.75,0)" xlink:href="#O"/><use transform="matrix(0.05,0,0,0.05,46.75,0)" xlink:href="#M"/><use transform="matrix(0.05,0,0,0.05,56.75,0)" xlink:href="#S"/><use transform="matrix(0.05,0,0,0.05,66.75,0)" xlink:href="#T"/><use transform="matrix(0.05,0,0,0.05,76.8,0)" xlink:href="#T"/></g><g id="q"><use transform="matrix(0.05,0,0,0.05,0,0)" xlink:href="#af"/><use transform="matrix(0.05,0,0,0.05,14,0)" xlink:href="#O"/><use transform="matrix(0.05,0,0,0.05,22.200000000000003,0)" xlink:href="#ad"/><use transform="matrix(0.05,0,0,0.05,34.550000000000004,0)" xlink:href="#ab"/><use transform="matrix(0.05,0,0,0.05,44.550000000000004,0)" xlink:href="#W"/><use transform="matrix(0.05,0,0,0.05,54.45,0)" xlink:href="#V"/></g><g id="r"><use transform="matrix(0.05,0,0,0.05,0,0)" xlink:href="#ax"/><use transform="matrix(0.05,0,0,0.05,10.3,0)" xlink:href="#S"/><use transform="matrix(0.05,0,0,0.05,20.3,0)" xlink:href="#M"/><use transform="matrix(0.05,0,0,0.05,30.3,0)" xlink:href="#W"/><use transform="matrix(0.05,0,0,0.05,40.2,0)" xlink:href="#T"/><use transform="matrix(0.05,0,0,0.05,50.25,0)" xlink:href="#S"/><use transform="matrix(0.05,0,0,0.05,60.25,0)" xlink:href="#M"/><use transform="matrix(0.05,0,0,0.05,70.25,0)" xlink:href="#R"/><use transform="matrix(0.05,0,0,0.05,79.6,0)" xlink:href="#V"/><use transform="matrix(0.05,0,0,0.05,89.6,0)" xlink:href="#W"/><use transform="matrix(0.05,0,0,0.05,99.5,0)" xlink:href="#T"/><use transform="matrix(0.05,0,0,0.05,109.55000000000001,0)" xlink:href="#au"/></g><path d="M200-71c5 87-137 96-174 38-6-8-10-16-14-25l29-13c12 25 29 48 67 48 33 0 58-14 58-48 0-41-36-45-82-44v-26c42 2 76-5 75-43-1-27-20-40-49-40-34 0-53 18-62 43l-31-10c14-38 43-60 94-60 47 0 79 19 81 64 1 36-22 50-49 58 33 5 55 22 57 58" id="az"/><path d="M121-190v23H57V0H25v-190h96" id="aA"/><g id="s"><use transform="matrix(0.05,0,0,0.05,0,0)" xlink:href="#az"/><use transform="matrix(0.05,0,0,0.05,10.850000000000001,0)" xlink:href="#V"/><use transform="matrix(0.05,0,0,0.05,20.85,0)" xlink:href="#aA"/><use transform="matrix(0.05,0,0,0.05,27.400000000000002,0)" xlink:href="#S"/><use transform="matrix(0.05,0,0,0.05,37.2,0)" xlink:href="#ay"/><use transform="matrix(0.05,0,0,0.05,46.2,0)" xlink:href="#U"/><use transform="matrix(0.05,0,0,0.05,54.45,0)" xlink:href="#aw"/><use transform="matrix(0.05,0,0,0.05,62.7,0)" xlink:href="#V"/></g><g id="t"><use transform="matrix(0.05,0,0,0.05,0,0)" xlink:href="#V"/><use transform="matrix(0.05,0,0,0.05,9.8,0)" xlink:href="#ay"/><use transform="matrix(0.05,0,0,0.05,18.200000000000003,0)" xlink:href="#ac"/><use transform="matrix(0.05,0,0,0.05,28.700000000000003,0)" xlink:href="#T"/><use transform="matrix(0.05,0,0,0.05,38.75,0)" xlink:href="#O"/><use transform="matrix(0.05,0,0,0.05,46.75,0)" xlink:href="#M"/><use transform="matrix(0.05,0,0,0.05,56.75,0)" xlink:href="#S"/><use transform="matrix(0.05,0,0,0.05,66.75,0)" xlink:href="#T"/><use transform="matrix(0.05,0,0,0.05,76.8,0)" xlink:href="#Y"/></g><use transform="matrix(0.05,0,0,0.05,0,0)" xlink:href="#R" id="u"/><g id="v"><use transform="matrix(0.05,0,0,0.05,0,0)" xlink:href="#ak"/><use transform="matrix(0.05,0,0,0.05,11.8,0)" xlink:href="#al"/></g><path d="M131-81C94-61 21-56 21-118v-72h32c4 39-16 99 29 99 19 0 33-5 49-8v-91h31V0h-31v-81" id="aB"/><g id="x"><use transform="matrix(0.05,0,0,0.05,0,0)" xlink:href="#ae"/><use transform="matrix(0.05,0,0,0.05,12.9,0)" xlink:href="#M"/><use transform="matrix(0.05,0,0,0.05,22.5,0)" xlink:href="#aa"/><use transform="matrix(0.05,0,0,0.05,33,0)" xlink:href="#ay"/><use transform="matrix(0.05,0,0,0.05,42,0)" xlink:href="#aB"/><use transform="matrix(0.05,0,0,0.05,51.35,0)" xlink:href="#ab"/><use transform="matrix(0.05,0,0,0.05,61.35,0)" xlink:href="#W"/><use transform="matrix(0.05,0,0,0.05,71.25,0)" xlink:href="#T"/><use transform="matrix(0.05,0,0,0.05,81.3,0)" xlink:href="#ab"/></g><g id="y"><use transform="matrix(0.05,0,0,0.05,0,0)" xlink:href="#V"/><use transform="matrix(0.05,0,0,0.05,9.8,0)" xlink:href="#ay"/><use transform="matrix(0.05,0,0,0.05,18.200000000000003,0)" xlink:href="#ac"/><use transform="matrix(0.05,0,0,0.05,28.700000000000003,0)" xlink:href="#T"/><use transform="matrix(0.05,0,0,0.05,38.75,0)" xlink:href="#O"/><use transform="matrix(0.05,0,0,0.05,46.75,0)" xlink:href="#M"/><use transform="matrix(0.05,0,0,0.05,56.75,0)" xlink:href="#S"/><use transform="matrix(0.05,0,0,0.05,66.75,0)" xlink:href="#T"/><use transform="matrix(0.05,0,0,0.05,76.8,0)" xlink:href="#Y"/></g><g id="z"><use transform="matrix(0.05,0,0,0.05,0,0)" xlink:href="#T"/><use transform="matrix(0.05,0,0,0.05,10.05,0)" xlink:href="#U"/></g><path d="M18-100v-36l175-74v27L42-118l151 64v27" id="aC"/><path d="M175-194c59 1 80 36 80 99 0 62-25 99-81 99-54 0-76-36-78-91H57V0H25v-190h32v80h39c4-56 30-84 79-84zm-1 174c42 1 48-34 48-75 0-42-6-75-46-75-41-1-47 34-47 75s6 74 45 75" id="aD"/><path d="M18-27v-27l151-64-151-65v-27l175 74v36" id="aE"/><g id="A"><use transform="matrix(0.05,0,0,0.05,0,0)" xlink:href="#aC"/><use transform="matrix(0.05,0,0,0.05,10.5,0)" xlink:href="#aC"/><use transform="matrix(0.05,0,0,0.05,21,0)" xlink:href="#R"/><use transform="matrix(0.05,0,0,0.05,30.55,0)" xlink:href="#aw"/><use transform="matrix(0.05,0,0,0.05,38.6,0)" xlink:href="#aa"/><use transform="matrix(0.05,0,0,0.05,49.1,0)" xlink:href="#aD"/><use transform="matrix(0.05,0,0,0.05,62.2,0)" xlink:href="#aB"/><use transform="matrix(0.05,0,0,0.05,71.55,0)" xlink:href="#V"/><use transform="matrix(0.05,0,0,0.05,81.55,0)" xlink:href="#ab"/><use transform="matrix(0.05,0,0,0.05,90.95,0)" xlink:href="#O"/><use transform="matrix(0.05,0,0,0.05,99.15,0)" xlink:href="#aE"/><use transform="matrix(0.05,0,0,0.05,109.65,0)" xlink:href="#aE"/></g><g id="B"><use transform="matrix(0.05,0,0,0.05,0,0)" xlink:href="#af"/><use transform="matrix(0.05,0,0,0.05,14,0)" xlink:href="#ax"/><use transform="matrix(0.05,0,0,0.05,24.3,0)" xlink:href="#W"/><use transform="matrix(0.05,0,0,0.05,34.2,0)" xlink:href="#M"/><use transform="matrix(0.05,0,0,0.05,44.2,0)" xlink:href="#R"/><use transform="matrix(0.05,0,0,0.05,53.35,0)" xlink:href="#aa"/><use transform="matrix(0.05,0,0,0.05,63.85,0)" xlink:href="#ab"/><use transform="matrix(0.05,0,0,0.05,73.85000000000001,0)" xlink:href="#W"/><use transform="matrix(0.05,0,0,0.05,83.75000000000001,0)" xlink:href="#T"/><use transform="matrix(0.05,0,0,0.05,93.80000000000001,0)" xlink:href="#ab"/></g><path d="M25 0v-190h32v167h72v-167h31v167h72v-167h32V0H25" id="aF"/><g id="C"><use transform="matrix(0.05,0,0,0.05,0,0)" xlink:href="#aC"/><use transform="matrix(0.05,0,0,0.05,10.5,0)" xlink:href="#aC"/><use transform="matrix(0.05,0,0,0.05,21,0)" xlink:href="#S"/><use transform="matrix(0.05,0,0,0.05,31,0)" xlink:href="#V"/><use transform="matrix(0.05,0,0,0.05,41,0)" xlink:href="#N"/><use transform="matrix(0.05,0,0,0.05,50,0)" xlink:href="#aF"/><use transform="matrix(0.05,0,0,0.05,64.4,0)" xlink:href="#T"/><use transform="matrix(0.05,0,0,0.05,74.45,0)" xlink:href="#S"/><use transform="matrix(0.05,0,0,0.05,84.25,0)" xlink:href="#au"/><use transform="matrix(0.05,0,0,0.05,93.95,0)" xlink:href="#ab"/><use transform="matrix(0.05,0,0,0.05,103.35000000000001,0)" xlink:href="#O"/><use transform="matrix(0.05,0,0,0.05,111.55000000000001,0)" xlink:href="#aE"/><use transform="matrix(0.05,0,0,0.05,122.05000000000001,0)" xlink:href="#aE"/></g><g id="D"><use transform="matrix(0.05,0,0,0.05,0,0)" xlink:href="#ae"/><use transform="matrix(0.05,0,0,0.05,12.9,0)" xlink:href="#S"/><use transform="matrix(0.05,0,0,0.05,22.9,0)" xlink:href="#M"/><use transform="matrix(0.05,0,0,0.05,32.9,0)" xlink:href="#R"/><use transform="matrix(0.05,0,0,0.05,42.25,0)" xlink:href="#ab"/><use transform="matrix(0.05,0,0,0.05,52.25,0)" xlink:href="#S"/><use transform="matrix(0.05,0,0,0.05,62.25,0)" xlink:href="#aw"/><use transform="matrix(0.05,0,0,0.05,70.5,0)" xlink:href="#V"/></g><g id="E"><use transform="matrix(0.05,0,0,0.05,0,0)" xlink:href="#R"/><use transform="matrix(0.05,0,0,0.05,9.55,0)" xlink:href="#R"/><use transform="matrix(0.05,0,0,0.05,18.900000000000002,0)" xlink:href="#ab"/><use transform="matrix(0.05,0,0,0.05,28.5,0)" xlink:href="#ac"/><use transform="matrix(0.05,0,0,0.05,39,0)" xlink:href="#ab"/><use transform="matrix(0.05,0,0,0.05,49,0)" xlink:href="#W"/><use transform="matrix(0.05,0,0,0.05,58.900000000000006,0)" xlink:href="#W"/><use transform="matrix(0.05,0,0,0.05,68.8,0)" xlink:href="#X"/><use transform="matrix(0.05,0,0,0.05,81.7,0)" xlink:href="#av"/></g><g id="F"><use transform="matrix(0.05,0,0,0.05,0,0)" xlink:href="#ac"/><use transform="matrix(0.05,0,0,0.05,10.5,0)" xlink:href="#V"/><use transform="matrix(0.05,0,0,0.05,20.5,0)" xlink:href="#W"/><use transform="matrix(0.05,0,0,0.05,30.399999999999995,0)" xlink:href="#W"/><use transform="matrix(0.05,0,0,0.05,40.3,0)" xlink:href="#X"/><use transform="matrix(0.05,0,0,0.05,53.19999999999999,0)" xlink:href="#av"/></g><g id="G"><use transform="matrix(0.05,0,0,0.05,0,0)" xlink:href="#aj"/><use transform="matrix(0.05,0,0,0.05,12,0)" xlink:href="#X"/><use transform="matrix(0.05,0,0,0.05,24.9,0)" xlink:href="#R"/><use transform="matrix(0.05,0,0,0.05,34.25,0)" xlink:href="#M"/><use transform="matrix(0.05,0,0,0.05,43.85,0)" xlink:href="#ac"/></g><g id="H"><use transform="matrix(0.05,0,0,0.05,0,0)" xlink:href="#M"/><use transform="matrix(0.05,0,0,0.05,10,0)" xlink:href="#aF"/><use transform="matrix(0.05,0,0,0.05,24.4,0)" xlink:href="#T"/><use transform="matrix(0.05,0,0,0.05,34.45,0)" xlink:href="#ax"/><use transform="matrix(0.05,0,0,0.05,44.75,0)" xlink:href="#aw"/><use transform="matrix(0.05,0,0,0.05,52.6,0)" xlink:href="#T"/></g><g id="I"><use transform="matrix(0.05,0,0,0.05,0,0)" xlink:href="#V"/><use transform="matrix(0.05,0,0,0.05,10,0)" xlink:href="#R"/><use transform="matrix(0.05,0,0,0.05,19.15,0)" xlink:href="#O"/><use transform="matrix(0.05,0,0,0.05,27.149999999999995,0)" xlink:href="#M"/><use transform="matrix(0.05,0,0,0.05,37.15,0)" xlink:href="#S"/><use transform="matrix(0.05,0,0,0.05,47.15,0)" xlink:href="#T"/><use transform="matrix(0.05,0,0,0.05,57.2,0)" xlink:href="#U"/><use transform="matrix(0.05,0,0,0.05,65.45,0)" xlink:href="#V"/><use transform="matrix(0.05,0,0,0.05,75.45,0)" xlink:href="#at"/><use transform="matrix(0.05,0,0,0.05,85.75,0)" xlink:href="#T"/><use transform="matrix(0.05,0,0,0.05,95.8,0)" xlink:href="#T"/></g><g id="J"><use transform="matrix(0.05,0,0,0.05,0,0)" xlink:href="#M"/><use transform="matrix(0.05,0,0,0.05,10,0)" xlink:href="#aF"/><use transform="matrix(0.05,0,0,0.05,24.4,0)" xlink:href="#T"/><use transform="matrix(0.05,0,0,0.05,34.45,0)" xlink:href="#ax"/><use transform="matrix(0.05,0,0,0.05,44.75,0)" xlink:href="#aw"/><use transform="matrix(0.05,0,0,0.05,52.6,0)" xlink:href="#T"/></g><g id="K"><use transform="matrix(0.05,0,0,0.05,0,0)" xlink:href="#R"/><use transform="matrix(0.05,0,0,0.05,9.55,0)" xlink:href="#av"/><use transform="matrix(0.05,0,0,0.05,18.35,0)" xlink:href="#M"/><use transform="matrix(0.05,0,0,0.05,27.950000000000003,0)" xlink:href="#ac"/><use transform="matrix(0.05,0,0,0.05,38.45,0)" xlink:href="#V"/></g></defs></g></svg>